UbuntuMono-BI.ufo
<glyph name="dollar" format="2">
	<unicode hex="0024"/>
	<advance width="500"/>
	<outline>
		<contour>
			<point x="236" y="108" type="qcurve"/>
			<point x="256" y="108"/>
			<point x="297" y="113"/>
			<point x="330" y="128"/>
			<point x="350" y="156"/>
			<point x="350" y="179" type="qcurve"/>
			<point x="350" y="195"/>
			<point x="337" y="218"/>
			<point x="315" y="237"/>
			<point x="286" y="253"/>
			<point x="270" y="261" type="qcurve"/>
			<point x="232" y="279"/>
			<point x="182" y="317"/>
			<point x="151" y="358"/>
			<point x="138" y="405"/>
			<point x="138" y="432" type="qcurve"/>
			<point x="138" y="462"/>
			<point x="160" y="518"/>
			<point x="205" y="563"/>
			<point x="274" y="595"/>
			<point x="322" y="600" type="qcurve"/>
			<point x="346" y="693" type="line"/>
			<point x="449" y="693" type="line"/>
			<point x="425" y="598" type="line"/>
			<point x="460" y="590"/>
			<point x="518" y="568"/>
			<point x="536" y="557" type="qcurve"/>
			<point x="487" y="469" type="line"/>
			<point x="462" y="486"/>
			<point x="396" y="504"/>
			<point x="364" y="504" type="qcurve"/>
			<point x="323" y="504"/>
			<point x="263" y="471"/>
			<point x="263" y="438" type="qcurve"/>
			<point x="263" y="413"/>
			<point x="297" y="377"/>
			<point x="342" y="355" type="qcurve"/>
			<point x="367" y="342"/>
			<point x="415" y="312"/>
			<point x="452" y="273"/>
			<point x="474" y="222"/>
			<point x="474" y="188" type="qcurve"/>
			<point x="474" y="106"/>
			<point x="370" y="18"/>
			<point x="285" y="10" type="qcurve"/>
			<point x="260" y="-97" type="line"/>
			<point x="156" y="-97" type="line"/>
			<point x="182" y="11" type="line"/>
			<point x="135" y="18"/>
			<point x="65" y="47"/>
			<point x="47" y="58" type="qcurve"/>
			<point x="97" y="150" type="line"/>
			<point x="119" y="136"/>
			<point x="193" y="108"/>
		</contour>
	</outline>
</glyph>
<glyph name="seven" format="2">
	<unicode hex="0037"/>
	<advance width="500"/>
	<outline>
		<contour>
			<point x="118" y="0" type="line"/>
			<point x="136" y="67"/>
			<point x="203" y="211"/>
			<point x="285" y="348"/>
			<point x="376" y="469"/>
			<point x="419" y="514" type="qcurve"/>
			<point x="138" y="514" type="line"/>
			<point x="163" y="619" type="line"/>
			<point x="594" y="619" type="line"/>
			<point x="572" y="529" type="line"/>
			<point x="537" y="500"/>
			<point x="444" y="391"/>
			<point x="350" y="249"/>
			<point x="268" y="85"/>
			<point x="244" y="0" type="qcurve"/>
		</contour>
	</outline>
</glyph>
<glyph name="equal" format="2">
	<unicode hex="003D"/>
	<advance width="500"/>
	<outline>
		<contour>
			<point x="465" y="114" type="line"/>
			<point x="45" y="114" type="line"/>
			<point x="69" y="216" type="line"/>
			<point x="489" y="216" type="line"/>
		</contour>
		<contour>
			<point x="511" y="309" type="line"/>
			<point x="91" y="309" type="line"/>
			<point x="116" y="411" type="line"/>
			<point x="535" y="411" type="line"/>
		</contour>
	</outline>
	<guideline y="309"/>
	<guideline y="343"/>
</glyph>
<glyph name="greater" format="2">
	<unicode hex="003E"/>
	<advance width="500"/>
	<outline>
		<contour>
			<point x="509" y="305" type="line"/>
			<point x="159" y="474" type="line"/>
			<point x="108" y="379" type="line"/>
			<point x="363" y="262" type="line"/>
			<point x="53" y="154" type="line"/>
			<point x="62" y="44" type="line"/>
			<point x="485" y="206" type="line"/>
		</contour>
	</outline>
	<guideline y="255"/>
	<guideline y="473"/>
</glyph>
<glyph name="at" format="2">
	<unicode hex="0040"/>
	<advance width="500"/>
	<outline>
		<contour>
			<point x="313" y="-48" type="qcurve"/>
			<point x="356" y="-48"/>
			<point x="407" y="-37"/>
			<point x="415" y="-35" type="qcurve"/>
			<point x="408" y="-121" type="line"/>
			<point x="382" y="-127"/>
			<point x="328" y="-135"/>
			<point x="299" y="-135" type="qcurve"/>
			<point x="181" y="-135"/>
			<point x="55" y="3"/>
			<point x="55" y="147" type="qcurve"/>
			<point x="55" y="252"/>
			<point x="104" y="430"/>
			<point x="192" y="560"/>
			<point x="313" y="633"/>
			<point x="386" y="633" type="qcurve"/>
			<point x="476" y="633"/>
			<point x="560" y="554"/>
			<point x="560" y="480" type="qcurve"/>
			<point x="560" y="461"/>
			<point x="553" y="414"/>
			<point x="548" y="392" type="qcurve"/>
			<point x="467" y="55" type="line"/>
			<point x="439" y="46"/>
			<point x="379" y="35"/>
			<point x="353" y="35" type="qcurve"/>
			<point x="321" y="35"/>
			<point x="268" y="52"/>
			<point x="230" y="90"/>
			<point x="209" y="150"/>
			<point x="209" y="193" type="qcurve"/>
			<point x="209" y="239"/>
			<point x="233" y="329"/>
			<point x="282" y="399"/>
			<point x="355" y="443"/>
			<point x="403" y="443" type="qcurve"/>
			<point x="420" y="443"/>
			<point x="447" y="437"/>
			<point x="454" y="435" type="qcurve"/>
			<point x="457" y="446"/>
			<point x="461" y="471"/>
			<point x="461" y="479" type="qcurve"/>
			<point x="461" y="510"/>
			<point x="418" y="547"/>
			<point x="381" y="547" type="qcurve"/>
			<point x="334" y="547"/>
			<point x="249" y="494"/>
			<point x="185" y="393"/>
			<point x="148" y="249"/>
			<point x="148" y="159" type="qcurve"/>
			<point x="148" y="48"/>
			<point x="236" y="-48"/>
		</contour>
		<contour>
			<point x="363" y="130" type="qcurve"/>
			<point x="366" y="130"/>
			<point x="377" y="130"/>
			<point x="381" y="132" type="qcurve"/>
			<point x="431" y="341" type="line"/>
			<point x="423" y="347"/>
			<point x="406" y="347" type="qcurve"/>
			<point x="380" y="347"/>
			<point x="343" y="320"/>
			<point x="320" y="276"/>
			<point x="309" y="222"/>
			<point x="309" y="194" type="qcurve"/>
			<point x="309" y="162"/>
			<point x="337" y="130"/>
		</contour>
	</outline>
	<guideline x="344"/>
</glyph>
<glyph name="A" format="2">
	<unicode hex="0041"/>
	<advance width="500"/>
	<outline>
		<contour>
			<point x="352" y="0" type="line"/>
			<point x="476" y="0" type="line"/>
			<point x="478" y="236"/>
			<point x="464" y="439"/>
			<point x="443" y="619" type="curve"/>
			<point x="312" y="619" type="line"/>
			<point x="213" y="457"/>
			<point x="107" y="246"/>
			<point x="-6" y="0" type="curve"/>
			<point x="119" y="0" type="line"/>
			<point x="138" y="51"/>
			<point x="160" y="99"/>
			<point x="180" y="144" type="curve"/>
			<point x="356" y="144" type="line"/>
		</contour>
		<contour>
			<point x="352" y="502" type="curve"/>
			<point x="355" y="437"/>
			<point x="361" y="380"/>
			<point x="358" y="243" type="curve"/>
			<point x="226" y="243" type="line"/>
			<point x="288" y="380"/>
			<point x="317" y="436"/>
		</contour>
	</outline>
</glyph>
<glyph name="D" format="2">
	<unicode hex="0044"/>
	<advance width="500"/>
	<outline>
		<contour>
			<point x="177" y="100" type="line"/>
			<point x="182" y="99"/>
			<point x="194" y="99"/>
			<point x="199" y="99" type="qcurve"/>
			<point x="256" y="99"/>
			<point x="335" y="158"/>
			<point x="383" y="249"/>
			<point x="405" y="357"/>
			<point x="405" y="405" type="qcurve"/>
			<point x="405" y="429"/>
			<point x="397" y="471"/>
			<point x="377" y="502"/>
			<point x="341" y="519"/>
			<point x="313" y="519" type="qcurve"/>
			<point x="295" y="519"/>
			<point x="277" y="516" type="qcurve"/>
		</contour>
		<contour>
			<point x="529" y="409" type="qcurve"/>
			<point x="529" y="329"/>
			<point x="491" y="178"/>
			<point x="407" y="62"/>
			<point x="274" y="-8"/>
			<point x="180" y="-8" type="qcurve"/>
			<point x="148" y="-8"/>
			<point x="66" y="-1"/>
			<point x="31" y="7" type="qcurve"/>
			<point x="177" y="611" type="line"/>
			<point x="221" y="620"/>
			<point x="282" y="626"/>
			<point x="314" y="626" type="qcurve"/>
			<point x="414" y="626"/>
			<point x="529" y="513"/>
		</contour>
	</outline>
</glyph>
<glyph name="J" format="2">
	<unicode hex="004A"/>
	<advance width="500"/>
	<outline>
		<contour>
			<point x="459" y="207" type="line"/>
			<point x="448" y="160"/>
			<point x="414" y="79"/>
			<point x="358" y="20"/>
			<point x="273" y="-13"/>
			<point x="212" y="-13" type="qcurve"/>
			<point x="180" y="-13"/>
			<point x="125" y="0"/>
			<point x="82" y="20"/>
			<point x="48" y="44"/>
			<point x="37" y="55" type="qcurve"/>
			<point x="100" y="144" type="line"/>
			<point x="120" y="126"/>
			<point x="175" y="94"/>
			<point x="210" y="94" type="qcurve"/>
			<point x="258" y="94"/>
			<point x="321" y="145"/>
			<point x="338" y="214" type="qcurve"/>
			<point x="410" y="517" type="line"/>
			<point x="210" y="517" type="line"/>
			<point x="234" y="619" type="line"/>
			<point x="557" y="619" type="line"/>
		</contour>
	</outline>
</glyph>
<glyph name="L" format="2">
	<unicode hex="004C"/>
	<advance width="500"/>
	<outline>
		<contour>
			<point x="453" y="102" type="line"/>
			<point x="192" y="102" type="line"/>
			<point x="316" y="619" type="line"/>
			<point x="193" y="619" type="line"/>
			<point x="45" y="0" type="line"/>
			<point x="429" y="0" type="line"/>
		</contour>
	</outline>
</glyph>
<glyph name="R" format="2">
	<unicode hex="0052"/>
	<advance width="500"/>
	<outline>
		<contour>
			<point x="381" y="253" type="qcurve"/>
			<point x="396" y="228"/>
			<point x="423" y="166"/>
			<point x="447" y="99"/>
			<point x="466" y="31"/>
			<point x="472" y="0" type="qcurve"/>
			<point x="352" y="0" type="line"/>
			<point x="341" y="60"/>
			<point x="301" y="172"/>
			<point x="274" y="228" type="qcurve"/>
			<point x="210" y="228" type="line"/>
			<point x="155" y="0" type="line"/>
			<point x="34" y="0" type="line"/>
			<point x="179" y="609" type="line"/>
			<point x="198" y="613"/>
			<point x="241" y="620"/>
			<point x="283" y="624"/>
			<point x="321" y="626"/>
			<point x="336" y="626" type="qcurve"/>
			<point x="435" y="626"/>
			<point x="533" y="539"/>
			<point x="533" y="465" type="qcurve"/>
			<point x="533" y="430"/>
			<point x="514" y="363"/>
			<point x="475" y="306"/>
			<point x="418" y="263"/>
		</contour>
		<contour>
			<point x="280" y="330" type="line"/>
			<point x="306" y="330"/>
			<point x="353" y="344"/>
			<point x="389" y="374"/>
			<point x="410" y="420"/>
			<point x="410" y="451" type="qcurve"/>
			<point x="410" y="486"/>
			<point x="368" y="524"/>
			<point x="317" y="524" type="qcurve"/>
			<point x="306" y="524"/>
			<point x="288" y="522"/>
			<point x="280" y="520" type="qcurve"/>
			<point x="234" y="330" type="line"/>
		</contour>
	</outline>
</glyph>
<glyph name="S" format="2">
	<unicode hex="0053"/>
	<advance width="500"/>
	<outline>
		<contour>
			<point x="236" y="90" type="qcurve"/>
			<point x="259" y="90"/>
			<point x="301" y="99"/>
			<point x="332" y="120"/>
			<point x="351" y="152"/>
			<point x="351" y="176" type="qcurve"/>
			<point x="351" y="194"/>
			<point x="336" y="223"/>
			<point x="310" y="247"/>
			<point x="275" y="267"/>
			<point x="255" y="277" type="qcurve"/>
			<point x="230" y="290"/>
			<point x="187" y="316"/>
			<point x="156" y="352"/>
			<point x="138" y="402"/>
			<point x="138" y="438" type="qcurve"/>
			<point x="138" y="526"/>
			<point x="257" y="633"/>
			<point x="367" y="633" type="qcurve"/>
			<point x="403" y="633"/>
			<point x="460" y="623"/>
			<point x="504" y="609"/>
			<point x="535" y="593"/>
			<point x="545" y="587" type="qcurve"/>
			<point x="493" y="492" type="line"/>
			<point x="470" y="508"/>
			<point x="400" y="530"/>
			<point x="351" y="530" type="qcurve"/>
			<point x="313" y="530"/>
			<point x="260" y="496"/>
			<point x="260" y="454" type="qcurve"/>
			<point x="260" y="420"/>
			<point x="305" y="385"/>
			<point x="337" y="371" type="qcurve"/>
			<point x="367" y="357"/>
			<point x="417" y="327"/>
			<point x="453" y="287"/>
			<point x="474" y="233"/>
			<point x="474" y="196" type="qcurve"/>
			<point x="474" y="94"/>
			<point x="343" y="-13"/>
			<point x="223" y="-13" type="qcurve"/>
			<point x="183" y="-13"/>
			<point x="120" y="-1"/>
			<point x="74" y="15"/>
			<point x="41" y="34"/>
			<point x="31" y="41" type="qcurve"/>
			<point x="84" y="135" type="line"/>
			<point x="94" y="129"/>
			<point x="125" y="113"/>
			<point x="164" y="99"/>
			<point x="210" y="90"/>
		</contour>
	</outline>
	<guideline x="59"/>
</glyph>
<glyph name="grave" format="2">
	<unicode hex="0060"/>
	<advance width="500"/>
	<outline>
		<contour>
			<point x="238" y="597" type="line"/>
			<point x="412" y="506" type="line"/>
			<point x="457" y="573" type="line"/>
			<point x="299" y="691" type="line"/>
		</contour>
	</outline>
	<guideline y="513"/>
	<guideline y="691"/>
	<guideline y="693"/>
</glyph>
<glyph name="d" format="2">
	<unicode hex="0064"/>
	<advance width="500"/>
	<outline>
		<contour>
			<point x="251" y="94" type="qcurve"/>
			<point x="279" y="94"/>
			<point x="317" y="119"/>
			<point x="331" y="136" type="qcurve"/>
			<point x="333" y="150"/>
			<point x="337" y="176"/>
			<point x="341" y="193" type="qcurve"/>
			<point x="384" y="371" type="line"/>
			<point x="373" y="374"/>
			<point x="349" y="376"/>
			<point x="338" y="376" type="qcurve"/>
			<point x="303" y="376"/>
			<point x="247" y="343"/>
			<point x="207" y="289"/>
			<point x="186" y="219"/>
			<point x="186" y="182" type="qcurve"/>
			<point x="186" y="156"/>
			<point x="195" y="122"/>
			<point x="212" y="102"/>
			<point x="236" y="94"/>
		</contour>
		<contour>
			<point x="463" y="192" type="line"/>
			<point x="459" y="174"/>
			<point x="455" y="139"/>
			<point x="455" y="121" type="qcurve"/>
			<point x="455" y="92"/>
			<point x="466" y="37"/>
			<point x="475" y="10" type="qcurve"/>
			<point x="367" y="-8" type="line"/>
			<point x="365" y="-4"/>
			<point x="359" y="8"/>
			<point x="353" y="22"/>
			<point x="349" y="33"/>
			<point x="348" y="36" type="qcurve"/>
			<point x="328" y="21"/>
			<point x="260" y="-11"/>
			<point x="206" y="-11" type="qcurve"/>
			<point x="140" y="-10"/>
			<point x="64" y="83"/>
			<point x="64" y="172" type="qcurve"/>
			<point x="64" y="240"/>
			<point x="110" y="353"/>
			<point x="189" y="433"/>
			<point x="296" y="477"/>
			<point x="356" y="477" type="qcurve"/>
			<point x="383" y="477"/>
			<point x="408" y="470" type="qcurve"/>
			<point x="456" y="673" type="line"/>
			<point x="584" y="694" type="line"/>
		</contour>
	</outline>
</glyph>
<glyph name="i" format="2">
	<unicode hex="0069"/>
	<advance width="500"/>
	<outline>
		<contour>
			<point x="459" y="13" type="line"/>
			<point x="422" y="-1"/>
			<point x="357" y="-11"/>
			<point x="329" y="-11" type="qcurve"/>
			<point x="258" y="-11"/>
			<point x="190" y="58"/>
			<point x="190" y="121" type="qcurve"/>
			<point x="190" y="154"/>
			<point x="201" y="198" type="qcurve"/>
			<point x="241" y="368" type="line"/>
			<point x="111" y="368" type="line"/>
			<point x="136" y="470" type="line"/>
			<point x="389" y="470" type="line"/>
			<point x="321" y="183" type="line"/>
			<point x="315" y="162"/>
			<point x="315" y="146" type="qcurve"/>
			<point x="315" y="96"/>
			<point x="366" y="96" type="qcurve"/>
			<point x="383" y="96"/>
			<point x="429" y="103"/>
			<point x="457" y="113" type="qcurve"/>
		</contour>
		<contour>
			<point x="332" y="527" type="qcurve"/>
			<point x="300" y="527"/>
			<point x="261" y="561"/>
			<point x="261" y="597" type="qcurve"/>
			<point x="261" y="616"/>
			<point x="275" y="649"/>
			<point x="298" y="671"/>
			<point x="328" y="684"/>
			<point x="344" y="684" type="qcurve"/>
			<point x="373" y="684"/>
			<point x="416" y="650"/>
			<point x="416" y="612" type="qcurve"/>
			<point x="416" y="594"/>
			<point x="401" y="562"/>
			<point x="377" y="540"/>
			<point x="347" y="527"/>
		</contour>
	</outline>
	<guideline x="28"/>
</glyph>
<glyph name="o" format="2">
	<unicode hex="006F"/>
	<advance width="500"/>
	<outline>
		<contour>
			<point x="256" y="94" type="qcurve"/>
			<point x="286" y="94"/>
			<point x="332" y="130"/>
			<point x="365" y="184"/>
			<point x="382" y="247"/>
			<point x="382" y="275" type="qcurve"/>
			<point x="382" y="322"/>
			<point x="355" y="376"/>
			<point x="313" y="376" type="qcurve"/>
			<point x="284" y="376"/>
			<point x="237" y="340"/>
			<point x="205" y="286"/>
			<point x="188" y="223"/>
			<point x="188" y="195" type="qcurve"/>
			<point x="188" y="148"/>
			<point x="215" y="94"/>
		</contour>
		<contour>
			<point x="231" y="-13" type="qcurve"/>
			<point x="147" y="-13"/>
			<point x="65" y="83"/>
			<point x="65" y="163" type="qcurve"/>
			<point x="65" y="223"/>
			<point x="101" y="337"/>
			<point x="171" y="427"/>
			<point x="275" y="482"/>
			<point x="343" y="482" type="qcurve"/>
			<point x="416" y="482"/>
			<point x="505" y="393"/>
			<point x="505" y="305" type="qcurve"/>
			<point x="505" y="246"/>
			<point x="471" y="132"/>
			<point x="402" y="42"/>
			<point x="299" y="-13"/>
		</contour>
	</outline>
	<guideline x="343"/>
</glyph>
<glyph name="r" format="2">
	<unicode hex="0072"/>
	<advance width="500"/>
	<outline>
		<contour>
			<point x="488" y="348" type="line"/>
			<point x="469" y="355"/>
			<point x="417" y="363"/>
			<point x="379" y="363" type="qcurve"/>
			<point x="353" y="363"/>
			<point x="298" y="356"/>
			<point x="275" y="348" type="qcurve"/>
			<point x="192" y="0" type="line"/>
			<point x="69" y="0" type="line"/>
			<point x="174" y="439" type="line"/>
			<point x="221" y="458"/>
			<point x="330" y="479"/>
			<point x="378" y="479" type="qcurve"/>
			<point x="434" y="479"/>
			<point x="505" y="469"/>
			<point x="535" y="461" type="qcurve"/>
		</contour>
	</outline>
	<guideline x="50"/>
</glyph>
<glyph name="s" format="2">
	<unicode hex="0073"/>
	<advance width="500"/>
	<outline>
		<contour>
			<point x="234" y="91" type="qcurve"/>
			<point x="287" y="91"/>
			<point x="327" y="119"/>
			<point x="327" y="138" type="qcurve"/>
			<point x="327" y="147"/>
			<point x="320" y="161"/>
			<point x="303" y="174"/>
			<point x="273" y="187"/>
			<point x="250" y="196" type="qcurve"/>
			<point x="222" y="206"/>
			<point x="180" y="228"/>
			<point x="152" y="257"/>
			<point x="138" y="295"/>
			<point x="138" y="321" type="qcurve"/>
			<point x="138" y="394"/>
			<point x="241" y="482"/>
			<point x="344" y="482" type="qcurve"/>
			<point x="395" y="482"/>
			<point x="480" y="464"/>
			<point x="505" y="452" type="qcurve"/>
			<point x="460" y="355" type="line"/>
			<point x="437" y="366"/>
			<point x="378" y="380"/>
			<point x="333" y="380" type="qcurve"/>
			<point x="323" y="380"/>
			<point x="298" y="377"/>
			<point x="276" y="367"/>
			<point x="261" y="350"/>
			<point x="261" y="337" type="qcurve"/>
			<point x="261" y="328"/>
			<point x="266" y="315"/>
			<point x="282" y="302"/>
			<point x="312" y="288"/>
			<point x="337" y="279" type="qcurve"/>
			<point x="367" y="267"/>
			<point x="410" y="243"/>
			<point x="439" y="213"/>
			<point x="452" y="173"/>
			<point x="452" y="145" type="qcurve"/>
			<point x="452" y="116"/>
			<point x="428" y="60"/>
			<point x="377" y="15"/>
			<point x="295" y="-13"/>
			<point x="238" y="-13" type="qcurve"/>
			<point x="197" y="-13"/>
			<point x="135" y="-3"/>
			<point x="89" y="11"/>
			<point x="58" y="26"/>
			<point x="49" y="31" type="qcurve"/>
			<point x="95" y="128" type="line"/>
			<point x="115" y="117"/>
			<point x="185" y="91"/>
		</contour>
	</outline>
</glyph>
<glyph name="x" format="2">
	<unicode hex="0078"/>
	<advance width="500"/>
	<outline>
		<contour>
			<point x="238" y="470" type="line"/>
			<point x="307" y="320" type="line"/>
			<point x="337" y="356"/>
			<point x="395" y="433"/>
			<point x="420" y="470" type="qcurve"/>
			<point x="550" y="470" type="line"/>
			<point x="512" y="416"/>
			<point x="422" y="301"/>
			<point x="363" y="238" type="qcurve"/>
			<point x="398" y="172"/>
			<point x="449" y="60"/>
			<point x="469" y="0" type="qcurve"/>
			<point x="343" y="0" type="line"/>
			<point x="327" y="42"/>
			<point x="292" y="121"/>
			<point x="277" y="152" type="qcurve"/>
			<point x="145" y="0" type="line"/>
			<point x="10" y="0" type="line"/>
			<point x="223" y="239" type="line"/>
			<point x="109" y="470" type="line"/>
		</contour>
	</outline>
	<guideline x="82"/>
	<guideline x="272"/>
	<guideline x="463"/>
	<guideline x="480"/>
</glyph>
<glyph name="braceleft" format="2">
	<unicode hex="007B"/>
	<advance width="500"/>
	<outline>
		<contour>
			<point x="247" y="267" type="qcurve"/>
			<point x="281" y="252"/>
			<point x="305" y="200"/>
			<point x="305" y="170" type="qcurve"/>
			<point x="305" y="156"/>
			<point x="302" y="127"/>
			<point x="298" y="113" type="qcurve"/>
			<point x="276" y="14" type="line"/>
			<point x="274" y="4"/>
			<point x="269" y="-20"/>
			<point x="269" y="-30" type="qcurve"/>
			<point x="269" y="-47"/>
			<point x="289" y="-69"/>
			<point x="315" y="-69" type="qcurve"/>
			<point x="405" y="-69" type="line"/>
			<point x="382" y="-165" type="line"/>
			<point x="289" y="-165" type="line"/>
			<point x="260" y="-165"/>
			<point x="211" y="-153"/>
			<point x="175" y="-126"/>
			<point x="154" y="-81"/>
			<point x="154" y="-49" type="qcurve"/>
			<point x="154" y="-23"/>
			<point x="163" y="13" type="qcurve"/>
			<point x="188" y="122" type="line"/>
			<point x="191" y="134"/>
			<point x="196" y="158"/>
			<point x="196" y="170" type="qcurve"/>
			<point x="196" y="190"/>
			<point x="175" y="219"/>
			<point x="146" y="219" type="qcurve"/>
			<point x="99" y="219" type="line"/>
			<point x="122" y="315" type="line"/>
			<point x="171" y="315" type="line"/>
			<point x="202" y="315"/>
			<point x="246" y="358"/>
			<point x="255" y="399" type="qcurve"/>
			<point x="290" y="547" type="line"/>
			<point x="299" y="584"/>
			<point x="324" y="641"/>
			<point x="365" y="679"/>
			<point x="427" y="699"/>
			<point x="472" y="699" type="qcurve"/>
			<point x="579" y="699" type="line"/>
			<point x="555" y="603" type="line"/>
			<point x="480" y="603" type="line"/>
			<point x="459" y="603"/>
			<point x="432" y="594"/>
			<point x="414" y="575"/>
			<point x="402" y="544"/>
			<point x="397" y="523" type="qcurve"/>
			<point x="367" y="396" type="line"/>
			<point x="353" y="340"/>
			<point x="300" y="277"/>
		</contour>
	</outline>
	<guideline y="-100"/>
	<guideline y="219"/>
	<guideline x="41" y="0" angle="103.5"/>
	<guideline x="194" y="0" angle="103.5"/>
</glyph>
<glyph name="exclamdown" format="2">
	<unicode hex="00A1"/>
	<advance width="500"/>
	<outline>
		<contour>
			<point x="318" y="303" type="qcurve"/>
			<point x="286" y="303"/>
			<point x="244" y="340"/>
			<point x="244" y="377" type="qcurve"/>
			<point x="244" y="397"/>
			<point x="259" y="431"/>
			<point x="284" y="456"/>
			<point x="316" y="470"/>
			<point x="334" y="470" type="qcurve"/>
			<point x="365" y="470"/>
			<point x="408" y="432"/>
			<point x="408" y="395" type="qcurve"/>
			<point x="408" y="374"/>
			<point x="393" y="340"/>
			<point x="368" y="316"/>
			<point x="335" y="303"/>
		</contour>
		<contour>
			<point x="167" y="6" type="line"/>
			<point x="176" y="42"/>
			<point x="192" y="100"/>
			<point x="210" y="152"/>
			<point x="230" y="203"/>
			<point x="242" y="233" type="qcurve"/>
			<point x="344" y="233" type="line"/>
			<point x="341" y="198"/>
			<point x="334" y="140"/>
			<point x="326" y="84"/>
			<point x="314" y="29"/>
			<point x="307" y="-1" type="qcurve"/>
			<point x="269" y="-161" type="line"/>
			<point x="127" y="-161" type="line"/>
		</contour>
	</outline>
</glyph>
<glyph name="ordfeminine" format="2">
	<unicode hex="00AA"/>
	<advance width="500"/>
	<outline>
		<contour>
			<point x="374" y="449" type="line" smooth="yes"/>
			<point x="370" y="431"/>
			<point x="365" y="412"/>
			<point x="365" y="394" type="curve" smooth="yes"/>
			<point x="365" y="388"/>
			<point x="365" y="384"/>
			<point x="366" y="381" type="curve"/>
			<point x="347" y="367"/>
			<point x="330" y="362"/>
			<point x="313" y="362" type="curve" smooth="yes"/>
			<point x="274" y="362"/>
			<point x="256" y="391"/>
			<point x="256" y="427" type="curve" smooth="yes"/>
			<point x="256" y="498"/>
			<point x="311" y="544"/>
			<point x="375" y="544" type="curve" smooth="yes"/>
			<point x="382" y="544"/>
			<point x="390" y="543"/>
			<point x="398" y="542" type="curve"/>
		</contour>
		<contour>
			<point x="512" y="616" type="line"/>
			<point x="470" y="628"/>
			<point x="432" y="632"/>
			<point x="397" y="632" type="curve" smooth="yes"/>
			<point x="237" y="632"/>
			<point x="162" y="517"/>
			<point x="162" y="417" type="curve" smooth="yes"/>
			<point x="162" y="340"/>
			<point x="205" y="272"/>
			<point x="288" y="272" type="curve" smooth="yes"/>
			<point x="320" y="272"/>
			<point x="351" y="283"/>
			<point x="382" y="304" type="curve"/>
			<point x="394" y="276" type="line"/>
			<point x="478" y="288" type="line"/>
			<point x="452" y="355"/>
			<point x="463" y="409"/>
			<point x="472" y="450" type="curve" smooth="yes"/>
		</contour>
	</outline>
</glyph>
<glyph name="macron" format="2">
	<unicode hex="00AF"/>
	<advance width="500"/>
	<outline>
		<contour>
			<point x="236" y="647" type="line"/>
			<point x="523" y="647" type="line"/>
			<point x="502" y="560" type="line"/>
			<point x="214" y="560" type="line"/>
		</contour>
	</outline>
</glyph>
<glyph name="threesuperior" format="2">
	<unicode hex="00B3"/>
	<advance width="500"/>
	<outline>
		<contour>
			<point x="204" y="366" type="line"/>
			<point x="221" y="355"/>
			<point x="272" y="342"/>
			<point x="298" y="342" type="qcurve"/>
			<point x="327" y="342"/>
			<point x="370" y="362"/>
			<point x="370" y="385" type="qcurve"/>
			<point x="370" y="400"/>
			<point x="343" y="417"/>
			<point x="313" y="417" type="qcurve"/>
			<point x="268" y="417" type="line"/>
			<point x="286" y="486" type="line"/>
			<point x="326" y="486" type="line"/>
			<point x="355" y="486"/>
			<point x="386" y="512"/>
			<point x="386" y="528" type="qcurve"/>
			<point x="386" y="539"/>
			<point x="366" y="555"/>
			<point x="345" y="555" type="qcurve"/>
			<point x="322" y="555"/>
			<point x="276" y="540"/>
			<point x="258" y="531" type="qcurve"/>
			<point x="239" y="603" type="line"/>
			<point x="262" y="614"/>
			<point x="333" y="633"/>
			<point x="368" y="633" type="qcurve"/>
			<point x="389" y="633"/>
			<point x="428" y="625"/>
			<point x="457" y="605"/>
			<point x="474" y="572"/>
			<point x="474" y="547" type="qcurve"/>
			<point x="474" y="521"/>
			<point x="444" y="472"/>
			<point x="415" y="459" type="qcurve"/>
			<point x="435" y="449"/>
			<point x="458" y="409"/>
			<point x="458" y="385" type="qcurve"/>
			<point x="458" y="352"/>
			<point x="429" y="305"/>
			<point x="383" y="275"/>
			<point x="324" y="262"/>
			<point x="293" y="262" type="qcurve"/>
			<point x="258" y="262"/>
			<point x="191" y="277"/>
			<point x="168" y="291" type="qcurve"/>
		</contour>
	</outline>
</glyph>
<glyph name="ordmasculine" format="2">
	<unicode hex="00BA"/>
	<advance width="500"/>
	<outline>
		<contour>
			<point x="266" y="407" type="qcurve"/>
			<point x="266" y="374"/>
			<point x="298" y="354"/>
			<point x="318" y="354" type="qcurve"/>
			<point x="338" y="354"/>
			<point x="374" y="376"/>
			<point x="402" y="415"/>
			<point x="419" y="468"/>
			<point x="419" y="499" type="qcurve"/>
			<point x="419" y="532"/>
			<point x="387" y="553"/>
			<point x="367" y="553" type="qcurve"/>
			<point x="347" y="553"/>
			<point x="311" y="530"/>
			<point x="283" y="491"/>
			<point x="266" y="438"/>
		</contour>
		<contour>
			<point x="173" y="400" type="qcurve"/>
			<point x="173" y="445"/>
			<point x="199" y="529"/>
			<point x="250" y="594"/>
			<point x="327" y="633"/>
			<point x="377" y="633" type="qcurve"/>
			<point x="447" y="633"/>
			<point x="512" y="565"/>
			<point x="512" y="506" type="qcurve"/>
			<point x="512" y="462"/>
			<point x="486" y="378"/>
			<point x="435" y="313"/>
			<point x="358" y="273"/>
			<point x="308" y="273" type="qcurve"/>
			<point x="238" y="273"/>
			<point x="173" y="341"/>
		</contour>
	</outline>
</glyph>
<glyph name="guillemotright" format="2">
	<unicode hex="00BB"/>
	<advance width="500"/>
	<outline>
		<contour>
			<point x="391" y="258" type="line"/>
			<point x="333" y="427" type="line"/>
			<point x="403" y="463" type="line"/>
			<point x="500" y="250" type="line"/>
			<point x="327" y="46" type="line"/>
			<point x="264" y="91" type="line"/>
		</contour>
		<contour>
			<point x="191" y="258" type="line"/>
			<point x="133" y="427" type="line"/>
			<point x="203" y="463" type="line"/>
			<point x="300" y="250" type="line"/>
			<point x="127" y="46" type="line"/>
			<point x="64" y="91" type="line"/>
		</contour>
	</outline>
</glyph>
<glyph name="threequarters" format="2">
	<unicode hex="00BE"/>
	<advance width="500"/>
	<outline>
		<contour>
			<point x="593" y="619" type="line"/>
			<point x="128" y="0" type="line"/>
			<point x="32" y="0" type="line"/>
			<point x="496" y="619" type="line"/>
		</contour>
		<contour>
			<point x="112" y="445" type="line"/>
			<point x="122" y="440"/>
			<point x="158" y="430"/>
			<point x="178" y="430" type="qcurve"/>
			<point x="185" y="430"/>
			<point x="203" y="431"/>
			<point x="219" y="436"/>
			<point x="230" y="446"/>
			<point x="230" y="456" type="qcurve"/>
			<point x="230" y="478"/>
			<point x="176" y="478" type="qcurve"/>
			<point x="156" y="478" type="line"/>
			<point x="169" y="530" type="line"/>
			<point x="192" y="530" type="line"/>
			<point x="200" y="530"/>
			<point x="219" y="532"/>
			<point x="235" y="537"/>
			<point x="245" y="547"/>
			<point x="245" y="555" type="qcurve"/>
			<point x="245" y="564"/>
			<point x="229" y="572"/>
			<point x="216" y="572" type="qcurve"/>
			<point x="196" y="572"/>
			<point x="157" y="559"/>
			<point x="146" y="554" type="qcurve"/>
			<point x="134" y="608" type="line"/>
			<point x="151" y="619"/>
			<point x="209" y="633"/>
			<point x="238" y="633" type="qcurve"/>
			<point x="285" y="633"/>
			<point x="324" y="600"/>
			<point x="324" y="578" type="qcurve"/>
			<point x="324" y="556"/>
			<point x="304" y="525"/>
			<point x="277" y="510" type="qcurve"/>
			<point x="299" y="502"/>
			<point x="315" y="477"/>
			<point x="315" y="462" type="qcurve"/>
			<point x="315" y="436"/>
			<point x="291" y="400"/>
			<point x="254" y="377"/>
			<point x="207" y="367"/>
			<point x="185" y="367" type="qcurve"/>
			<point x="147" y="367"/>
			<point x="99" y="378"/>
			<point x="85" y="386" type="qcurve"/>
		</contour>
		<contour>
			<point x="499" y="250" type="line"/>
			<point x="463" y="99" type="line"/>
			<point x="499" y="99" type="line"/>
			<point x="485" y="39" type="line"/>
			<point x="449" y="39" type="line"/>
			<point x="439" y="0" type="line"/>
			<point x="367" y="0" type="line"/>
			<point x="377" y="39" type="line"/>
			<point x="249" y="39" type="line"/>
			<point x="261" y="88" type="line"/>
			<point x="279" y="111"/>
			<point x="310" y="150"/>
			<point x="341" y="188"/>
			<point x="377" y="227"/>
			<point x="399" y="250" type="qcurve"/>
		</contour>
		<contour>
			<point x="413" y="188" type="line"/>
			<point x="393" y="168"/>
			<point x="354" y="119"/>
			<point x="338" y="99" type="qcurve"/>
			<point x="391" y="99" type="line"/>
		</contour>
	</outline>
	<guideline x="278"/>
</glyph>
<glyph name="Aogonek" format="2">
	<unicode hex="0104"/>
	<advance width="500"/>
	<outline>
		<contour>
			<point x="352" y="0" type="line"/>
			<point x="369" y="0" type="line"/>
			<point x="295" y="-44"/>
			<point x="269" y="-79"/>
			<point x="269" y="-117" type="curve" smooth="yes"/>
			<point x="269" y="-145"/>
			<point x="295" y="-170"/>
			<point x="368" y="-170" type="curve" smooth="yes"/>
			<point x="399" y="-170"/>
			<point x="431" y="-164"/>
			<point x="453" y="-156" type="curve"/>
			<point x="461" y="-92" type="line"/>
			<point x="453" y="-95"/>
			<point x="430" y="-101"/>
			<point x="413" y="-101" type="curve" smooth="yes"/>
			<point x="398" y="-101"/>
			<point x="391" y="-96"/>
			<point x="391" y="-87" type="curve" smooth="yes"/>
			<point x="391" y="-71"/>
			<point x="413" y="-47"/>
			<point x="472" y="-3" type="curve" smooth="yes"/>
			<point x="476" y="0" type="line"/>
			<point x="476" y="45" type="line" smooth="yes"/>
			<point x="476" y="262"/>
			<point x="463" y="450"/>
			<point x="443" y="619" type="curve"/>
			<point x="312" y="619" type="line"/>
			<point x="213" y="457"/>
			<point x="107" y="246"/>
			<point x="-6" y="0" type="curve"/>
			<point x="119" y="0" type="line"/>
			<point x="138" y="51"/>
			<point x="160" y="99"/>
			<point x="180" y="144" type="curve"/>
			<point x="356" y="144" type="line"/>
		</contour>
		<contour>
			<point x="352" y="502" type="curve"/>
			<point x="354" y="449"/>
			<point x="359" y="402"/>
			<point x="359" y="313" type="curve" smooth="yes"/>
			<point x="359" y="292"/>
			<point x="358" y="269"/>
			<point x="358" y="243" type="curve"/>
			<point x="226" y="243" type="line"/>
			<point x="288" y="380"/>
			<point x="317" y="436"/>
		</contour>
	</outline>
</glyph>
<glyph name="Eogonek" format="2">
	<unicode hex="0118"/>
	<advance width="500"/>
	<outline>
		<contour>
			<point x="419" y="-156" type="line"/>
			<point x="402" y="-162"/>
			<point x="357" y="-170"/>
			<point x="334" y="-170" type="qcurve"/>
			<point x="279" y="-170"/>
			<point x="235" y="-138"/>
			<point x="235" y="-117" type="qcurve"/>
			<point x="235" y="-88"/>
			<point x="277" y="-33"/>
			<point x="333" y="0" type="qcurve"/>
			<point x="53" y="0" type="line"/>
			<point x="201" y="619" type="line"/>
			<point x="568" y="619" type="line"/>
			<point x="544" y="517" type="line"/>
			<point x="300" y="517" type="line"/>
			<point x="266" y="378" type="line"/>
			<point x="478" y="378" type="line"/>
			<point x="454" y="276" type="line"/>
			<point x="242" y="276" type="line"/>
			<point x="200" y="102" type="line"/>
			<point x="466" y="102" type="line"/>
			<point x="442" y="0" type="line"/>
			<point x="435" y="-5" type="line"/>
			<point x="390" y="-37"/>
			<point x="357" y="-75"/>
			<point x="357" y="-87" type="qcurve"/>
			<point x="357" y="-101"/>
			<point x="379" y="-101" type="qcurve"/>
			<point x="392" y="-101"/>
			<point x="421" y="-94"/>
			<point x="427" y="-92" type="qcurve"/>
		</contour>
	</outline>
</glyph>
<glyph name="eogonek" format="2">
	<unicode hex="0119"/>
	<advance width="500"/>
	<outline>
		<contour>
			<point x="396" y="-156" type="line"/>
			<point x="379" y="-162"/>
			<point x="334" y="-170"/>
			<point x="311" y="-170" type="qcurve"/>
			<point x="256" y="-170"/>
			<point x="212" y="-138"/>
			<point x="212" y="-117" type="qcurve"/>
			<point x="212" y="-91"/>
			<point x="247" y="-41"/>
			<point x="292" y="-12" type="qcurve"/>
			<point x="290" y="-12" type="line"/>
			<point x="233" y="-12"/>
			<point x="151" y="17"/>
			<point x="99" y="69"/>
			<point x="75" y="140"/>
			<point x="75" y="183" type="qcurve"/>
			<point x="75" y="241"/>
			<point x="114" y="350"/>
			<point x="189" y="432"/>
			<point x="296" y="482"/>
			<point x="365" y="482" type="qcurve"/>
			<point x="434" y="482"/>
			<point x="522" y="414"/>
			<point x="522" y="353" type="qcurve"/>
			<point x="522" y="302"/>
			<point x="472" y="231"/>
			<point x="384" y="187"/>
			<point x="265" y="167"/>
			<point x="196" y="167" type="qcurve"/>
			<point x="196" y="149"/>
			<point x="208" y="120"/>
			<point x="235" y="100"/>
			<point x="280" y="89"/>
			<point x="314" y="89" type="qcurve"/>
			<point x="354" y="89"/>
			<point x="426" y="106"/>
			<point x="443" y="114" type="qcurve"/>
			<point x="451" y="21" type="line"/>
			<point x="415" y="-3" type="line"/>
			<point x="368" y="-34"/>
			<point x="334" y="-75"/>
			<point x="334" y="-87" type="qcurve"/>
			<point x="334" y="-101"/>
			<point x="356" y="-101" type="qcurve"/>
			<point x="369" y="-101"/>
			<point x="398" y="-94"/>
			<point x="404" y="-92" type="qcurve"/>
		</contour>
		<contour>
			<point x="342" y="384" type="qcurve"/>
			<point x="296" y="384"/>
			<point x="213" y="321"/>
			<point x="197" y="252" type="qcurve"/>
			<point x="260" y="252"/>
			<point x="341" y="268"/>
			<point x="387" y="293"/>
			<point x="405" y="323"/>
			<point x="405" y="336" type="qcurve"/>
			<point x="405" y="359"/>
			<point x="372" y="384"/>
		</contour>
	</outline>
</glyph>
<glyph name="dotlessi" format="2">
	<unicode hex="0131"/>
	<advance width="500"/>
	<outline>
		<contour>
			<point x="459" y="13" type="line"/>
			<point x="422" y="-1"/>
			<point x="357" y="-11"/>
			<point x="329" y="-11" type="qcurve"/>
			<point x="258" y="-11"/>
			<point x="190" y="58"/>
			<point x="190" y="121" type="qcurve"/>
			<point x="190" y="154"/>
			<point x="201" y="198" type="qcurve"/>
			<point x="241" y="368" type="line"/>
			<point x="111" y="368" type="line"/>
			<point x="136" y="470" type="line"/>
			<point x="389" y="470" type="line"/>
			<point x="321" y="183" type="line"/>
			<point x="315" y="162"/>
			<point x="315" y="146" type="qcurve"/>
			<point x="315" y="96"/>
			<point x="366" y="96" type="qcurve"/>
			<point x="383" y="96"/>
			<point x="429" y="103"/>
			<point x="457" y="113" type="qcurve"/>
		</contour>
	</outline>
</glyph>
<glyph name="ij" format="2">
	<unicode hex="0133"/>
	<advance width="500"/>
	<outline>
		<contour>
			<point x="190" y="0" type="line"/>
			<point x="67" y="0" type="line"/>
			<point x="180" y="470" type="line"/>
			<point x="304" y="470" type="line"/>
		</contour>
		<contour>
			<point x="265" y="527" type="qcurve"/>
			<point x="233" y="527"/>
			<point x="193" y="561"/>
			<point x="193" y="597" type="qcurve"/>
			<point x="193" y="616"/>
			<point x="207" y="649"/>
			<point x="230" y="671"/>
			<point x="260" y="684"/>
			<point x="276" y="684" type="qcurve"/>
			<point x="305" y="684"/>
			<point x="348" y="650"/>
			<point x="348" y="612" type="qcurve"/>
			<point x="348" y="594"/>
			<point x="333" y="562"/>
			<point x="310" y="540"/>
			<point x="280" y="527"/>
		</contour>
		<contour>
			<point x="221" y="-165" type="qcurve"/>
			<point x="196" y="-165"/>
			<point x="157" y="-156"/>
			<point x="137" y="-148" type="qcurve"/>
			<point x="171" y="-43" type="line"/>
			<point x="184" y="-48"/>
			<point x="207" y="-53"/>
			<point x="222" y="-53" type="qcurve"/>
			<point x="254" y="-53"/>
			<point x="287" y="-15"/>
			<point x="295" y="21" type="qcurve"/>
			<point x="403" y="470" type="line"/>
			<point x="527" y="470" type="line"/>
			<point x="418" y="17" type="line"/>
			<point x="395" y="-75"/>
			<point x="305" y="-165"/>
		</contour>
		<contour>
			<point x="487" y="527" type="qcurve"/>
			<point x="455" y="527"/>
			<point x="415" y="561"/>
			<point x="415" y="597" type="qcurve"/>
			<point x="415" y="616"/>
			<point x="429" y="649"/>
			<point x="452" y="671"/>
			<point x="482" y="684"/>
			<point x="498" y="684" type="qcurve"/>
			<point x="528" y="684"/>
			<point x="571" y="650"/>
			<point x="571" y="612" type="qcurve"/>
			<point x="571" y="594"/>
			<point x="556" y="562"/>
			<point x="532" y="540"/>
			<point x="502" y="527"/>
		</contour>
	</outline>
</glyph>
<glyph name="uni0186" format="2">
	<unicode hex="0186"/>
	<advance width="500"/>
	<outline>
		<contour>
			<point x="197" y="94" type="qcurve"/>
			<point x="252" y="94"/>
			<point x="326" y="150"/>
			<point x="369" y="237"/>
			<point x="387" y="339"/>
			<point x="387" y="386" type="qcurve"/>
			<point x="387" y="415"/>
			<point x="377" y="466"/>
			<point x="353" y="503"/>
			<point x="312" y="525"/>
			<point x="280" y="525" type="qcurve"/>
			<point x="237" y="525"/>
			<point x="185" y="505"/>
			<point x="164" y="494" type="qcurve"/>
			<point x="147" y="590" type="line"/>
			<point x="173" y="607"/>
			<point x="261" y="633"/>
			<point x="315" y="633" type="qcurve"/>
			<point x="362" y="633"/>
			<point x="435" y="597"/>
			<point x="485" y="534"/>
			<point x="511" y="448"/>
			<point x="511" y="399" type="qcurve"/>
			<point x="511" y="320"/>
			<point x="475" y="172"/>
			<point x="398" y="57"/>
			<point x="279" y="-13"/>
			<point x="197" y="-13" type="qcurve"/>
			<point x="160" y="-13"/>
			<point x="101" y="-1"/>
			<point x="57" y="15"/>
			<point x="30" y="31"/>
			<point x="25" y="36" type="qcurve"/>
			<point x="74" y="129" type="line"/>
			<point x="94" y="115"/>
			<point x="151" y="94"/>
		</contour>
	</outline>
</glyph>
<glyph name="uni018A" format="2">
	<unicode hex="018A"/>
	<advance width="500"/>
	<outline>
		<contour>
			<point x="255" y="531" type="line"/>
			<point x="216" y="527"/>
			<point x="179" y="477"/>
			<point x="179" y="442" type="qcurve"/>
			<point x="179" y="435"/>
			<point x="180" y="430" type="qcurve"/>
			<point x="91" y="418" type="line"/>
			<point x="90" y="421"/>
			<point x="89" y="429"/>
			<point x="89" y="435" type="qcurve"/>
			<point x="89" y="526"/>
			<point x="205" y="626"/>
			<point x="331" y="626" type="qcurve"/>
			<point x="447" y="626"/>
			<point x="550" y="529"/>
			<point x="550" y="422" type="qcurve"/>
			<point x="550" y="381"/>
			<point x="537" y="285"/>
			<point x="508" y="189"/>
			<point x="462" y="101"/>
			<point x="398" y="33"/>
			<point x="315" y="-8"/>
			<point x="262" y="-8" type="qcurve"/>
			<point x="221" y="-8"/>
			<point x="151" y="0"/>
			<point x="130" y="8" type="qcurve"/>
		</contour>
		<contour>
			<point x="279" y="88" type="qcurve"/>
			<point x="307" y="88"/>
			<point x="353" y="120"/>
			<point x="389" y="173"/>
			<point x="416" y="242"/>
			<point x="433" y="316"/>
			<point x="442" y="390"/>
			<point x="442" y="421" type="qcurve"/>
			<point x="442" y="442"/>
			<point x="437" y="482"/>
			<point x="424" y="513"/>
			<point x="399" y="533"/>
			<point x="380" y="533" type="qcurve"/>
			<point x="375" y="533"/>
			<point x="369" y="533"/>
			<point x="364" y="532" type="qcurve"/>
			<point x="259" y="91" type="line"/>
			<point x="266" y="88"/>
		</contour>
	</outline>
</glyph>
<glyph name="uni018B" format="2">
	<unicode hex="018B"/>
	<advance width="500"/>
	<outline>
		<contour>
			<point x="190" y="517" type="line"/>
			<point x="214" y="619" type="line"/>
			<point x="580" y="619" type="line"/>
			<point x="433" y="11" type="line"/>
			<point x="385" y="0"/>
			<point x="311" y="-6"/>
			<point x="276" y="-6" type="qcurve"/>
			<point x="224" y="-6"/>
			<point x="144" y="20"/>
			<point x="90" y="67"/>
			<point x="62" y="130"/>
			<point x="62" y="166" type="qcurve"/>
			<point x="62" y="230"/>
			<point x="109" y="319"/>
			<point x="190" y="375"/>
			<point x="300" y="399"/>
			<point x="363" y="399" type="qcurve"/>
			<point x="403" y="399" type="line"/>
			<point x="432" y="517" type="line"/>
		</contour>
		<contour>
			<point x="280" y="98" type="qcurve"/>
			<point x="294" y="98"/>
			<point x="323" y="100"/>
			<point x="332" y="102" type="qcurve"/>
			<point x="378" y="294" type="line"/>
			<point x="332" y="294" type="line"/>
			<point x="305" y="294"/>
			<point x="253" y="282"/>
			<point x="211" y="255"/>
			<point x="185" y="211"/>
			<point x="185" y="179" type="qcurve"/>
			<point x="185" y="141"/>
			<point x="233" y="98"/>
		</contour>
	</outline>
</glyph>
<glyph name="uni018F" format="2">
	<unicode hex="018F"/>
	<advance width="500"/>
	<outline>
		<contour>
			<point x="417" y="345" type="line"/>
			<point x="420" y="359"/>
			<point x="422" y="392"/>
			<point x="422" y="406" type="qcurve"/>
			<point x="422" y="440"/>
			<point x="403" y="487"/>
			<point x="369" y="514"/>
			<point x="322" y="526"/>
			<point x="295" y="526" type="qcurve"/>
			<point x="258" y="526"/>
			<point x="196" y="514"/>
			<point x="171" y="503" type="qcurve"/>
			<point x="160" y="599" type="line"/>
			<point x="193" y="617"/>
			<point x="281" y="633"/>
			<point x="319" y="633" type="qcurve"/>
			<point x="428" y="633"/>
			<point x="538" y="519"/>
			<point x="538" y="414" type="qcurve"/>
			<point x="538" y="370"/>
			<point x="525" y="272"/>
			<point x="496" y="177"/>
			<point x="450" y="91"/>
			<point x="384" y="26"/>
			<point x="297" y="-13"/>
			<point x="242" y="-13" type="qcurve"/>
			<point x="192" y="-13"/>
			<point x="124" y="21"/>
			<point x="82" y="78"/>
			<point x="64" y="154"/>
			<point x="64" y="195" type="qcurve"/>
			<point x="64" y="233"/>
			<point x="75" y="310"/>
			<point x="83" y="345" type="qcurve"/>
		</contour>
		<contour>
			<point x="177" y="248" type="line"/>
			<point x="175" y="237"/>
			<point x="173" y="208"/>
			<point x="173" y="192" type="qcurve"/>
			<point x="173" y="173"/>
			<point x="180" y="135"/>
			<point x="196" y="105"/>
			<point x="225" y="87"/>
			<point x="248" y="87" type="qcurve"/>
			<point x="275" y="87"/>
			<point x="322" y="113"/>
			<point x="359" y="156"/>
			<point x="387" y="215"/>
			<point x="396" y="248" type="qcurve"/>
		</contour>
	</outline>
</glyph>
<glyph name="uni0190" format="2">
	<unicode hex="0190"/>
	<advance width="500"/>
	<outline>
		<contour>
			<point x="438" y="272" type="line"/>
			<point x="358" y="272" type="line"/>
			<point x="332" y="272"/>
			<point x="274" y="262"/>
			<point x="225" y="238"/>
			<point x="192" y="195"/>
			<point x="192" y="162" type="qcurve"/>
			<point x="192" y="127"/>
			<point x="251" y="94"/>
			<point x="295" y="94" type="qcurve"/>
			<point x="345" y="94"/>
			<point x="426" y="109"/>
			<point x="464" y="129" type="qcurve"/>
			<point x="482" y="28" type="line"/>
			<point x="434" y="4"/>
			<point x="330" y="-13"/>
			<point x="274" y="-13" type="qcurve"/>
			<point x="234" y="-13"/>
			<point x="161" y="6"/>
			<point x="104" y="45"/>
			<point x="70" y="102"/>
			<point x="70" y="141" type="qcurve"/>
			<point x="70" y="211"/>
			<point x="146" y="303"/>
			<point x="214" y="332" type="qcurve"/>
			<point x="185" y="353"/>
			<point x="162" y="412"/>
			<point x="162" y="445" type="qcurve"/>
			<point x="162" y="489"/>
			<point x="202" y="559"/>
			<point x="269" y="607"/>
			<point x="355" y="633"/>
			<point x="402" y="633" type="qcurve"/>
			<point x="455" y="633"/>
			<point x="548" y="613"/>
			<point x="580" y="589" type="qcurve"/>
			<point x="530" y="498" type="line"/>
			<point x="519" y="505"/>
			<point x="496" y="515"/>
			<point x="466" y="523"/>
			<point x="425" y="527"/>
			<point x="394" y="527" type="qcurve"/>
			<point x="374" y="527"/>
			<point x="334" y="516"/>
			<point x="302" y="493"/>
			<point x="281" y="458"/>
			<point x="281" y="434" type="qcurve"/>
			<point x="281" y="378"/>
			<point x="373" y="378" type="qcurve"/>
			<point x="463" y="378" type="line"/>
		</contour>
	</outline>
</glyph>
<glyph name="uni0191" format="2">
	<unicode hex="0191"/>
	<advance width="500"/>
	<outline>
		<contour>
			<point x="185" y="18" type="line"/>
			<point x="174" y="-25"/>
			<point x="149" y="-93"/>
			<point x="109" y="-141"/>
			<point x="46" y="-167"/>
			<point x="-2" y="-167" type="qcurve"/>
			<point x="-15" y="-167"/>
			<point x="-58" y="-163"/>
			<point x="-78" y="-155" type="qcurve"/>
			<point x="-47" y="-56" type="line"/>
			<point x="-36" y="-61"/>
			<point x="-20" y="-63"/>
			<point x="-6" y="-63" type="qcurve"/>
			<point x="20" y="-63"/>
			<point x="49" y="-31"/>
			<point x="57" y="0" type="qcurve"/>
			<point x="205" y="619" type="line"/>
			<point x="585" y="619" type="line"/>
			<point x="561" y="517" type="line"/>
			<point x="305" y="517" type="line"/>
			<point x="268" y="367" type="line"/>
			<point x="492" y="367" type="line"/>
			<point x="468" y="265" type="line"/>
			<point x="244" y="265" type="line"/>
		</contour>
	</outline>
</glyph>
<glyph name="uni0196" format="2">
	<unicode hex="0196"/>
	<advance width="500"/>
	<outline>
		<contour>
			<point x="388" y="517" type="line"/>
			<point x="308" y="185" type="line"/>
			<point x="306" y="173"/>
			<point x="302" y="153"/>
			<point x="302" y="145" type="qcurve"/>
			<point x="302" y="119"/>
			<point x="332" y="96"/>
			<point x="367" y="96" type="qcurve"/>
			<point x="389" y="96"/>
			<point x="439" y="108"/>
			<point x="457" y="115" type="qcurve"/>
			<point x="462" y="14" type="line"/>
			<point x="439" y="5"/>
			<point x="377" y="-13"/>
			<point x="325" y="-13" type="qcurve"/>
			<point x="283" y="-13"/>
			<point x="226" y="6"/>
			<point x="190" y="39"/>
			<point x="175" y="86"/>
			<point x="175" y="113" type="qcurve"/>
			<point x="175" y="130"/>
			<point x="180" y="167"/>
			<point x="185" y="187" type="qcurve"/>
			<point x="264" y="517" type="line"/>
			<point x="148" y="517" type="line"/>
			<point x="172" y="619" type="line"/>
			<point x="547" y="619" type="line"/>
			<point x="523" y="517" type="line"/>
		</contour>
	</outline>
</glyph>
<glyph name="uni019B" format="2">
	<unicode hex="019B"/>
	<advance width="500"/>
	<outline>
		<contour>
			<point x="400" y="563" type="line"/>
			<point x="391" y="579"/>
			<point x="364" y="593"/>
			<point x="340" y="593" type="qcurve"/>
			<point x="326" y="593"/>
			<point x="302" y="588"/>
			<point x="292" y="586" type="qcurve"/>
			<point x="297" y="682" type="line"/>
			<point x="327" y="693"/>
			<point x="377" y="693" type="qcurve"/>
			<point x="433" y="693"/>
			<point x="494" y="641"/>
			<point x="511" y="599" type="qcurve"/>
			<point x="630" y="638" type="line"/>
			<point x="639" y="564" type="line"/>
			<point x="530" y="528" type="line"/>
			<point x="579" y="274"/>
			<point x="588" y="0" type="qcurve"/>
			<point x="456" y="0" type="line"/>
			<point x="455" y="97"/>
			<point x="448" y="273"/>
			<point x="441" y="332" type="qcurve"/>
			<point x="420" y="298"/>
			<point x="373" y="216"/>
			<point x="328" y="129"/>
			<point x="286" y="40"/>
			<point x="270" y="0" type="qcurve"/>
			<point x="140" y="0" type="line"/>
			<point x="171" y="76"/>
			<point x="242" y="208"/>
			<point x="315" y="325"/>
			<point x="388" y="428"/>
			<point x="422" y="473" type="qcurve"/>
			<point x="421" y="492" type="line"/>
			<point x="302" y="453" type="line"/>
			<point x="292" y="527" type="line"/>
		</contour>
	</outline>
</glyph>
<glyph name="Ohorn" format="2">
	<unicode hex="01A0"/>
	<advance width="500"/>
	<outline>
		<contour>
			<point x="357" y="633" type="qcurve"/>
			<point x="412" y="633"/>
			<point x="451" y="603" type="qcurve"/>
			<point x="474" y="630"/>
			<point x="486" y="689"/>
			<point x="489" y="715" type="qcurve"/>
			<point x="602" y="715" type="line"/>
			<point x="597" y="661"/>
			<point x="552" y="568"/>
			<point x="505" y="532" type="qcurve"/>
			<point x="522" y="492"/>
			<point x="522" y="441" type="qcurve"/>
			<point x="522" y="402"/>
			<point x="510" y="304"/>
			<point x="483" y="203"/>
			<point x="438" y="107"/>
			<point x="374" y="32"/>
			<point x="287" y="-13"/>
			<point x="231" y="-13" type="qcurve"/>
			<point x="154" y="-13"/>
			<point x="67" y="91"/>
			<point x="67" y="179" type="qcurve"/>
			<point x="67" y="218"/>
			<point x="79" y="316"/>
			<point x="106" y="417"/>
			<point x="150" y="513"/>
			<point x="214" y="588"/>
			<point x="301" y="633"/>
		</contour>
		<contour>
			<point x="245" y="94" type="qcurve"/>
			<point x="284" y="94"/>
			<point x="342" y="164"/>
			<point x="380" y="267"/>
			<point x="399" y="384"/>
			<point x="399" y="432" type="qcurve"/>
			<point x="399" y="471"/>
			<point x="376" y="526"/>
			<point x="343" y="526" type="qcurve"/>
			<point x="304" y="526"/>
			<point x="246" y="456"/>
			<point x="209" y="353"/>
			<point x="190" y="235"/>
			<point x="190" y="188" type="qcurve"/>
			<point x="190" y="149"/>
			<point x="213" y="94"/>
		</contour>
	</outline>
</glyph>
<glyph name="uhorn" format="2">
	<unicode hex="01B0"/>
	<advance width="500"/>
	<outline>
		<contour>
			<point x="414" y="191" type="line"/>
			<point x="407" y="160"/>
			<point x="407" y="117" type="qcurve"/>
			<point x="407" y="88"/>
			<point x="419" y="34"/>
			<point x="429" y="8" type="qcurve"/>
			<point x="323" y="-8" type="line"/>
			<point x="319" y="-1"/>
			<point x="308" y="27"/>
			<point x="306" y="36" type="qcurve"/>
			<point x="284" y="15"/>
			<point x="216" y="-11"/>
			<point x="187" y="-11" type="qcurve"/>
			<point x="152" y="-11"/>
			<point x="103" y="11"/>
			<point x="73" y="49"/>
			<point x="59" y="100"/>
			<point x="59" y="128" type="qcurve"/>
			<point x="59" y="154"/>
			<point x="67" y="211"/>
			<point x="74" y="238" type="qcurve"/>
			<point x="130" y="470" type="line"/>
			<point x="245" y="470" type="line"/>
			<point x="190" y="246" type="line"/>
			<point x="187" y="233"/>
			<point x="177" y="185"/>
			<point x="177" y="160" type="qcurve"/>
			<point x="177" y="134"/>
			<point x="195" y="96"/>
			<point x="221" y="96" type="qcurve"/>
			<point x="244" y="96"/>
			<point x="276" y="117"/>
			<point x="290" y="131" type="qcurve"/>
			<point x="292" y="149"/>
			<point x="296" y="176"/>
			<point x="300" y="193" type="qcurve"/>
			<point x="367" y="470" type="line"/>
			<point x="424" y="470" type="line"/>
			<point x="445" y="470"/>
			<point x="473" y="485"/>
			<point x="491" y="511"/>
			<point x="500" y="545"/>
			<point x="503" y="564" type="qcurve"/>
			<point x="605" y="564" type="line"/>
			<point x="602" y="532"/>
			<point x="584" y="477"/>
			<point x="551" y="434"/>
			<point x="500" y="407"/>
			<point x="465" y="403" type="qcurve"/>
		</contour>
	</outline>
</glyph>
<glyph name="uni01B9" format="2">
	<unicode hex="01B9"/>
	<advance width="500"/>
	<outline>
		<contour>
			<point x="384" y="136" type="line"/>
			<point x="358" y="136" type="line"/>
			<point x="322" y="136"/>
			<point x="257" y="123"/>
			<point x="208" y="94"/>
			<point x="179" y="50"/>
			<point x="179" y="20" type="qcurve"/>
			<point x="179" y="-17"/>
			<point x="231" y="-60"/>
			<point x="285" y="-60" type="qcurve"/>
			<point x="305" y="-60"/>
			<point x="348" y="-55"/>
			<point x="387" y="-47"/>
			<point x="420" y="-35"/>
			<point x="432" y="-29" type="qcurve"/>
			<point x="437" y="-126" type="line"/>
			<point x="402" y="-147"/>
			<point x="309" y="-165"/>
			<point x="261" y="-165" type="qcurve"/>
			<point x="222" y="-165"/>
			<point x="148" y="-147"/>
			<point x="90" y="-106"/>
			<point x="54" y="-39"/>
			<point x="54" y="10" type="qcurve"/>
			<point x="54" y="45"/>
			<point x="79" y="109"/>
			<point x="132" y="163"/>
			<point x="215" y="203"/>
			<point x="272" y="215" type="qcurve"/>
			<point x="242" y="264"/>
			<point x="187" y="364"/>
			<point x="170" y="396" type="qcurve"/>
			<point x="188" y="470" type="line"/>
			<point x="547" y="470" type="line"/>
			<point x="522" y="368" type="line"/>
			<point x="306" y="368" type="line"/>
			<point x="326" y="328"/>
			<point x="375" y="243"/>
			<point x="401" y="204" type="qcurve"/>
		</contour>
	</outline>
	<guideline x="177"/>
	<guideline y="-60"/>
</glyph>
<glyph name="uni01C7" format="2">
	<unicode hex="01C7"/>
	<advance width="500"/>
	<outline>
		<contour>
			<point x="252" y="86" type="line"/>
			<point x="104" y="86" type="line"/>
			<point x="232" y="619" type="line"/>
			<point x="145" y="619" type="line"/>
			<point x="-3" y="0" type="line"/>
			<point x="231" y="0" type="line"/>
		</contour>
		<contour>
			<point x="271" y="-12" type="line"/>
			<point x="442" y="-12"/>
			<point x="471" y="46"/>
			<point x="503" y="179" type="curve" smooth="yes"/>
			<point x="608" y="619" type="line"/>
			<point x="521" y="619" type="line"/>
			<point x="411" y="160" type="line" smooth="yes"/>
			<point x="393" y="86"/>
			<point x="347" y="74"/>
			<point x="292" y="74" type="curve"/>
		</contour>
	</outline>
</glyph>
<glyph name="uni01CA" format="2">
	<unicode hex="01CA"/>
	<advance width="500"/>
	<outline>
		<contour>
			<point x="305" y="72" type="line"/>
			<point x="323" y="72"/>
			<point x="356" y="79"/>
			<point x="383" y="98"/>
			<point x="404" y="132"/>
			<point x="411" y="160" type="qcurve"/>
			<point x="521" y="619" type="line"/>
			<point x="608" y="619" type="line"/>
			<point x="503" y="179" type="line"/>
			<point x="492" y="135"/>
			<point x="470" y="65"/>
			<point x="425" y="14"/>
			<point x="348" y="-13"/>
			<point x="284" y="-13" type="qcurve"/>
		</contour>
		<contour>
			<point x="178" y="0" type="line"/>
			<point x="177" y="58"/>
			<point x="175" y="149"/>
			<point x="175" y="238"/>
			<point x="177" y="332"/>
			<point x="179" y="393" type="qcurve"/>
			<point x="84" y="0" type="line"/>
			<point x="-3" y="0" type="line"/>
			<point x="145" y="619" type="line"/>
			<point x="220" y="619" type="line"/>
			<point x="227" y="256" type="line"/>
			<point x="313" y="619" type="line"/>
			<point x="401" y="619" type="line"/>
			<point x="253" y="0" type="line"/>
		</contour>
	</outline>
</glyph>
<glyph name="uni01CC" format="2">
	<unicode hex="01CC"/>
	<advance width="500"/>
	<outline>
		<contour>
			<point x="217" y="-63" type="line"/>
			<point x="237" y="-70"/>
			<point x="271" y="-78"/>
			<point x="285" y="-78" type="qcurve"/>
			<point x="315" y="-78"/>
			<point x="356" y="-38"/>
			<point x="368" y="13" type="qcurve"/>
			<point x="478" y="470" type="line"/>
			<point x="565" y="470" type="line"/>
			<point x="458" y="24" type="line"/>
			<point x="435" y="-70"/>
			<point x="354" y="-166"/>
			<point x="278" y="-166" type="qcurve"/>
			<point x="258" y="-166"/>
			<point x="215" y="-158"/>
			<point x="190" y="-148" type="qcurve"/>
		</contour>
		<contour>
			<point x="617" y="612" type="qcurve"/>
			<point x="617" y="597"/>
			<point x="604" y="566"/>
			<point x="582" y="541"/>
			<point x="550" y="526"/>
			<point x="532" y="526" type="qcurve"/>
			<point x="509" y="526"/>
			<point x="478" y="553"/>
			<point x="478" y="576" type="qcurve"/>
			<point x="478" y="595"/>
			<point x="494" y="628"/>
			<point x="518" y="650"/>
			<point x="549" y="663"/>
			<point x="564" y="663" type="qcurve"/>
			<point x="587" y="663"/>
			<point x="617" y="635"/>
		</contour>
		<contour>
			<point x="113" y="455" type="line"/>
			<point x="150" y="465"/>
			<point x="227" y="480"/>
			<point x="262" y="480" type="qcurve"/>
			<point x="324" y="480"/>
			<point x="375" y="420"/>
			<point x="375" y="370" type="qcurve"/>
			<point x="375" y="354"/>
			<point x="370" y="320"/>
			<point x="366" y="302" type="qcurve"/>
			<point x="294" y="0" type="line"/>
			<point x="206" y="0" type="line"/>
			<point x="277" y="294" type="line"/>
			<point x="279" y="305"/>
			<point x="284" y="332"/>
			<point x="284" y="346" type="qcurve"/>
			<point x="284" y="366"/>
			<point x="264" y="396"/>
			<point x="235" y="396" type="qcurve"/>
			<point x="210" y="396"/>
			<point x="185" y="386" type="qcurve"/>
			<point x="92" y="0" type="line"/>
			<point x="5" y="0" type="line"/>
		</contour>
	</outline>
</glyph>
<glyph name="uni01D7" format="2">
	<unicode hex="01D7"/>
	<advance width="500"/>
	<outline>
		<contour>
			<point x="237" y="-13" type="curve" smooth="yes"/>
			<point x="403" y="-13"/>
			<point x="447" y="74"/>
			<point x="482" y="220" type="curve" smooth="yes"/>
			<point x="573" y="599" type="line"/>
			<point x="450" y="599" type="line"/>
			<point x="361" y="229" type="line" smooth="yes"/>
			<point x="336" y="125"/>
			<point x="314" y="94"/>
			<point x="255" y="94" type="curve" smooth="yes"/>
			<point x="206" y="94"/>
			<point x="190" y="118"/>
			<point x="190" y="158" type="curve" smooth="yes"/>
			<point x="190" y="180"/>
			<point x="196" y="208"/>
			<point x="203" y="239" type="curve" smooth="yes"/>
			<point x="289" y="599" type="line"/>
			<point x="166" y="599" type="line"/>
			<point x="79" y="238" type="line" smooth="yes"/>
			<point x="71" y="204"/>
			<point x="67" y="174"/>
			<point x="67" y="146" type="curve" smooth="yes"/>
			<point x="67" y="46"/>
			<point x="121" y="-13"/>
		</contour>
		<contour>
			<point x="501" y="644" type="curve" smooth="yes"/>
			<point x="530" y="644"/>
			<point x="562" y="670"/>
			<point x="562" y="705" type="curve" smooth="yes"/>
			<point x="562" y="737"/>
			<point x="539" y="756"/>
			<point x="511" y="756" type="curve" smooth="yes"/>
			<point x="481" y="756"/>
			<point x="451" y="731"/>
			<point x="451" y="693" type="curve" smooth="yes"/>
			<point x="451" y="663"/>
			<point x="473" y="644"/>
		</contour>
		<contour>
			<point x="264" y="644" type="curve" smooth="yes"/>
			<point x="293" y="644"/>
			<point x="325" y="670"/>
			<point x="325" y="705" type="curve" smooth="yes"/>
			<point x="325" y="737"/>
			<point x="303" y="756"/>
			<point x="274" y="756" type="curve" smooth="yes"/>
			<point x="245" y="756"/>
			<point x="214" y="731"/>
			<point x="214" y="693" type="curve" smooth="yes"/>
			<point x="214" y="663"/>
			<point x="237" y="644"/>
		</contour>
		<contour>
			<point x="408" y="830" type="line"/>
			<point x="343" y="726" type="line"/>
			<point x="399" y="687" type="line"/>
			<point x="476" y="782" type="line"/>
		</contour>
	</outline>
</glyph>
<glyph name="uni01DE" format="2">
	<unicode hex="01DE"/>
	<advance width="500"/>
	<outline>
		<contour>
			<point x="297" y="621" type="qcurve"/>
			<point x="275" y="621"/>
			<point x="247" y="648"/>
			<point x="247" y="670" type="qcurve"/>
			<point x="247" y="699"/>
			<point x="284" y="734"/>
			<point x="307" y="734" type="qcurve"/>
			<point x="327" y="734"/>
			<point x="357" y="706"/>
			<point x="357" y="683" type="qcurve"/>
			<point x="357" y="670"/>
			<point x="346" y="647"/>
			<point x="328" y="631"/>
			<point x="307" y="621"/>
		</contour>
		<contour>
			<point x="461" y="621" type="qcurve"/>
			<point x="440" y="621"/>
			<point x="411" y="648"/>
			<point x="411" y="670" type="qcurve"/>
			<point x="411" y="699"/>
			<point x="448" y="734"/>
			<point x="471" y="734" type="qcurve"/>
			<point x="492" y="734"/>
			<point x="522" y="706"/>
			<point x="522" y="683" type="qcurve"/>
			<point x="522" y="657"/>
			<point x="483" y="621"/>
		</contour>
		<contour>
			<point x="302" y="830" type="line"/>
			<point x="534" y="830" type="line"/>
			<point x="517" y="759" type="line"/>
			<point x="285" y="759" type="line"/>
		</contour>
		<contour>
			<point x="355" y="124" type="line"/>
			<point x="179" y="124" type="line"/>
			<point x="164" y="95"/>
			<point x="133" y="33"/>
			<point x="119" y="0" type="qcurve"/>
			<point x="-6" y="0" type="line"/>
			<point x="76" y="174"/>
			<point x="230" y="464"/>
			<point x="302" y="579" type="qcurve"/>
			<point x="433" y="579" type="line"/>
			<point x="453" y="452"/>
			<point x="478" y="167"/>
			<point x="476" y="0" type="qcurve"/>
			<point x="352" y="0" type="line"/>
		</contour>
		<contour>
			<point x="342" y="462" type="qcurve"/>
			<point x="330" y="439"/>
			<point x="306" y="394"/>
			<point x="279" y="340"/>
			<point x="247" y="270"/>
			<point x="225" y="223" type="qcurve"/>
			<point x="357" y="223" type="line"/>
			<point x="358" y="270"/>
			<point x="356" y="340"/>
			<point x="351" y="395"/>
			<point x="345" y="439"/>
		</contour>
	</outline>
	<guideline y="580"/>
</glyph>
<glyph name="uni01E5" format="2">
	<unicode hex="01E5"/>
	<advance width="500"/>
	<outline>
		<contour>
			<point x="479" y="300" type="line"/>
			<point x="546" y="300" type="line"/>
			<point x="527" y="220" type="line"/>
			<point x="460" y="220" type="line"/>
			<point x="421" y="55" type="line"/>
			<point x="407" y="-3"/>
			<point x="365" y="-87"/>
			<point x="302" y="-142"/>
			<point x="215" y="-168"/>
			<point x="156" y="-168" type="qcurve"/>
			<point x="106" y="-168"/>
			<point x="36" y="-149"/>
			<point x="1" y="-129" type="qcurve"/>
			<point x="44" y="-32" type="line"/>
			<point x="67" y="-43"/>
			<point x="128" y="-63"/>
			<point x="168" y="-63" type="qcurve"/>
			<point x="225" y="-63"/>
			<point x="282" y="-12"/>
			<point x="291" y="30" type="qcurve"/>
			<point x="297" y="56" type="line"/>
			<point x="277" y="45"/>
			<point x="235" y="32"/>
			<point x="216" y="32" type="qcurve"/>
			<point x="142" y="32"/>
			<point x="76" y="122"/>
			<point x="76" y="196" type="qcurve"/>
			<point x="76" y="264"/>
			<point x="124" y="370"/>
			<point x="202" y="442"/>
			<point x="304" y="480"/>
			<point x="358" y="480" type="qcurve"/>
			<point x="398" y="480"/>
			<point x="480" y="467"/>
			<point x="515" y="451" type="qcurve"/>
		</contour>
		<contour>
			<point x="337" y="220" type="line"/>
			<point x="276" y="220" type="line"/>
			<point x="295" y="300" type="line"/>
			<point x="356" y="300" type="line"/>
			<point x="374" y="374" type="line"/>
			<point x="354" y="380"/>
			<point x="337" y="380" type="qcurve"/>
			<point x="305" y="380"/>
			<point x="254" y="351"/>
			<point x="216" y="303"/>
			<point x="196" y="239"/>
			<point x="196" y="205" type="qcurve"/>
			<point x="196" y="175"/>
			<point x="218" y="131"/>
			<point x="252" y="131" type="qcurve"/>
			<point x="265" y="131"/>
			<point x="304" y="142"/>
			<point x="321" y="155" type="qcurve"/>
		</contour>
	</outline>
</glyph>
<glyph name="uni01EB" format="2">
	<unicode hex="01EB"/>
	<advance width="500"/>
	<outline>
		<contour>
			<point x="307" y="-156" type="line"/>
			<point x="290" y="-162"/>
			<point x="245" y="-170"/>
			<point x="222" y="-170" type="qcurve"/>
			<point x="167" y="-170"/>
			<point x="123" y="-138"/>
			<point x="123" y="-117" type="qcurve"/>
			<point x="123" y="-91"/>
			<point x="158" y="-40"/>
			<point x="203" y="-11" type="qcurve"/>
			<point x="133" y="-3"/>
			<point x="65" y="90"/>
			<point x="65" y="163" type="qcurve"/>
			<point x="65" y="223"/>
			<point x="101" y="337"/>
			<point x="171" y="427"/>
			<point x="275" y="482"/>
			<point x="343" y="482" type="qcurve"/>
			<point x="416" y="482"/>
			<point x="505" y="393"/>
			<point x="505" y="305" type="qcurve"/>
			<point x="505" y="266"/>
			<point x="491" y="187"/>
			<point x="458" y="113"/>
			<point x="406" y="49"/>
			<point x="369" y="24" type="qcurve"/>
			<point x="330" y="-2"/>
			<point x="281" y="-34"/>
			<point x="254" y="-57"/>
			<point x="245" y="-76"/>
			<point x="245" y="-87" type="qcurve"/>
			<point x="245" y="-101"/>
			<point x="267" y="-101" type="qcurve"/>
			<point x="280" y="-101"/>
			<point x="309" y="-94"/>
			<point x="315" y="-92" type="qcurve"/>
		</contour>
		<contour>
			<point x="256" y="94" type="qcurve"/>
			<point x="286" y="94"/>
			<point x="332" y="130"/>
			<point x="365" y="184"/>
			<point x="382" y="247"/>
			<point x="382" y="275" type="qcurve"/>
			<point x="382" y="322"/>
			<point x="355" y="376"/>
			<point x="313" y="376" type="qcurve"/>
			<point x="284" y="376"/>
			<point x="237" y="340"/>
			<point x="205" y="286"/>
			<point x="188" y="223"/>
			<point x="188" y="195" type="qcurve"/>
			<point x="188" y="148"/>
			<point x="215" y="94"/>
		</contour>
	</outline>
</glyph>
<glyph name="uni01F2" format="2">
	<unicode hex="01F2"/>
	<advance width="500"/>
	<outline>
		<contour>
			<point x="580" y="388" type="line"/>
			<point x="561" y="359"/>
			<point x="517" y="287"/>
			<point x="471" y="209"/>
			<point x="425" y="129"/>
			<point x="405" y="93" type="qcurve"/>
			<point x="509" y="93" type="line"/>
			<point x="487" y="0" type="line"/>
			<point x="293" y="0" type="line"/>
			<point x="310" y="71" type="line"/>
			<point x="337" y="119"/>
			<point x="380" y="199"/>
			<point x="421" y="271"/>
			<point x="461" y="340"/>
			<point x="484" y="377" type="qcurve"/>
			<point x="393" y="377" type="line"/>
			<point x="414" y="470" type="line"/>
			<point x="599" y="470" type="line"/>
		</contour>
		<contour>
			<point x="247" y="626" type="qcurve"/>
			<point x="314" y="626"/>
			<point x="371" y="547"/>
			<point x="371" y="456" type="qcurve"/>
			<point x="371" y="409"/>
			<point x="355" y="303"/>
			<point x="324" y="200"/>
			<point x="278" y="107"/>
			<point x="216" y="36"/>
			<point x="140" y="-6"/>
			<point x="94" y="-6" type="qcurve"/>
			<point x="90" y="-6"/>
			<point x="71" y="-5"/>
			<point x="46" y="-3"/>
			<point x="19" y="1"/>
			<point x="8" y="4" type="qcurve"/>
			<point x="154" y="615" type="line"/>
			<point x="179" y="620"/>
			<point x="223" y="626"/>
		</contour>
		<contour>
			<point x="115" y="88" type="line"/>
			<point x="119" y="87"/>
			<point x="125" y="87" type="qcurve"/>
			<point x="158" y="87"/>
			<point x="215" y="157"/>
			<point x="259" y="263"/>
			<point x="284" y="389"/>
			<point x="284" y="446" type="qcurve"/>
			<point x="284" y="501"/>
			<point x="264" y="540"/>
			<point x="235" y="540" type="qcurve"/>
			<point x="227" y="540"/>
			<point x="223" y="539" type="qcurve"/>
		</contour>
	</outline>
</glyph>
<glyph name="uni01F6" format="2">
	<unicode hex="01F6"/>
	<advance width="500"/>
	<outline>
		<contour>
			<point x="329" y="-13" type="qcurve"/>
			<point x="297" y="-13"/>
			<point x="254" y="4"/>
			<point x="229" y="33"/>
			<point x="219" y="73"/>
			<point x="219" y="96" type="qcurve"/>
			<point x="219" y="128"/>
			<point x="232" y="196"/>
			<point x="240" y="228" type="qcurve"/>
			<point x="252" y="277" type="line"/>
			<point x="170" y="277" type="line"/>
			<point x="103" y="0" type="line"/>
			<point x="5" y="0" type="line"/>
			<point x="154" y="619" type="line"/>
			<point x="252" y="619" type="line"/>
			<point x="192" y="371" type="line"/>
			<point x="275" y="371" type="line"/>
			<point x="334" y="619" type="line"/>
			<point x="432" y="619" type="line"/>
			<point x="340" y="232" type="line"/>
			<point x="332" y="199"/>
			<point x="319" y="137"/>
			<point x="319" y="114" type="qcurve"/>
			<point x="319" y="97"/>
			<point x="330" y="76"/>
			<point x="344" y="76" type="qcurve"/>
			<point x="358" y="76"/>
			<point x="376" y="88"/>
			<point x="391" y="121"/>
			<point x="406" y="179"/>
			<point x="417" y="224" type="qcurve"/>
			<point x="475" y="470" type="line"/>
			<point x="572" y="470" type="line"/>
			<point x="511" y="215" type="line"/>
			<point x="498" y="161"/>
			<point x="473" y="76"/>
			<point x="435" y="17"/>
			<point x="376" y="-13"/>
		</contour>
	</outline>
	<guideline x="185" y="0" angle="103.5"/>
	<guideline x="459" y="0" angle="103.5"/>
</glyph>
<glyph name="uni021D" format="2">
	<unicode hex="021D"/>
	<advance width="500"/>
	<outline>
		<contour>
			<point x="133" y="450" type="line"/>
			<point x="170" y="464"/>
			<point x="257" y="481"/>
			<point x="303" y="481" type="qcurve"/>
			<point x="354" y="481"/>
			<point x="423" y="459"/>
			<point x="467" y="423"/>
			<point x="486" y="374"/>
			<point x="486" y="347" type="qcurve"/>
			<point x="486" y="296"/>
			<point x="431" y="211"/>
			<point x="360" y="183" type="qcurve"/>
			<point x="406" y="167"/>
			<point x="446" y="108"/>
			<point x="446" y="70" type="qcurve"/>
			<point x="446" y="36"/>
			<point x="419" y="-38"/>
			<point x="345" y="-104"/>
			<point x="214" y="-153"/>
			<point x="109" y="-162" type="qcurve"/>
			<point x="84" y="-164"/>
			<point x="29" y="-167"/>
			<point x="-1" y="-167" type="qcurve"/>
			<point x="18" y="-60" type="line"/>
			<point x="72" y="-59"/>
			<point x="180" y="-47"/>
			<point x="266" y="-19"/>
			<point x="320" y="27"/>
			<point x="320" y="62" type="qcurve"/>
			<point x="320" y="100"/>
			<point x="248" y="130"/>
			<point x="187" y="130" type="qcurve"/>
			<point x="155" y="130" type="line"/>
			<point x="182" y="233" type="line"/>
			<point x="221" y="233"/>
			<point x="286" y="244"/>
			<point x="333" y="266"/>
			<point x="360" y="299"/>
			<point x="360" y="322" type="qcurve"/>
			<point x="360" y="337"/>
			<point x="344" y="357"/>
			<point x="318" y="369"/>
			<point x="284" y="374"/>
			<point x="267" y="374" type="qcurve"/>
			<point x="232" y="374"/>
			<point x="163" y="357"/>
			<point x="141" y="348" type="qcurve"/>
		</contour>
	</outline>
</glyph>
<glyph name="uni0223" format="2">
	<unicode hex="0223"/>
	<advance width="500"/>
	<outline>
		<contour>
			<point x="336" y="437" type="qcurve"/>
			<point x="372" y="437"/>
			<point x="416" y="497"/>
			<point x="441" y="580"/>
			<point x="452" y="666"/>
			<point x="455" y="693" type="qcurve"/>
			<point x="578" y="693" type="line"/>
			<point x="576" y="645"/>
			<point x="564" y="541"/>
			<point x="544" y="497" type="qcurve"/>
			<point x="529" y="462"/>
			<point x="483" y="410"/>
			<point x="440" y="393" type="qcurve"/>
			<point x="458" y="383"/>
			<point x="483" y="352"/>
			<point x="498" y="316"/>
			<point x="505" y="275"/>
			<point x="505" y="255" type="qcurve"/>
			<point x="505" y="200"/>
			<point x="466" y="103"/>
			<point x="395" y="30"/>
			<point x="295" y="-13"/>
			<point x="235" y="-13" type="qcurve"/>
			<point x="192" y="-13"/>
			<point x="126" y="13"/>
			<point x="81" y="58"/>
			<point x="58" y="120"/>
			<point x="58" y="155" type="qcurve"/>
			<point x="58" y="193"/>
			<point x="78" y="266"/>
			<point x="117" y="329"/>
			<point x="175" y="378"/>
			<point x="212" y="393" type="qcurve"/>
			<point x="184" y="410"/>
			<point x="161" y="459"/>
			<point x="161" y="490" type="qcurve"/>
			<point x="161" y="541"/>
			<point x="195" y="642"/>
			<point x="217" y="693" type="qcurve"/>
			<point x="338" y="693" type="line"/>
			<point x="320" y="651"/>
			<point x="284" y="551"/>
			<point x="284" y="503" type="qcurve"/>
			<point x="284" y="474"/>
			<point x="313" y="437"/>
		</contour>
		<contour>
			<point x="254" y="93" type="qcurve"/>
			<point x="283" y="93"/>
			<point x="331" y="123"/>
			<point x="365" y="170"/>
			<point x="384" y="227"/>
			<point x="384" y="255" type="qcurve"/>
			<point x="384" y="290"/>
			<point x="346" y="331"/>
			<point x="311" y="331" type="qcurve"/>
			<point x="282" y="331"/>
			<point x="233" y="302"/>
			<point x="199" y="255"/>
			<point x="180" y="198"/>
			<point x="180" y="171" type="qcurve"/>
			<point x="180" y="135"/>
			<point x="218" y="93"/>
		</contour>
	</outline>
</glyph>
<glyph name="uni0236" format="2">
	<unicode hex="0236"/>
	<advance width="500"/>
	<outline>
		<contour>
			<point x="204" y="368" type="line"/>
			<point x="96" y="368" type="line"/>
			<point x="121" y="470" type="line"/>
			<point x="228" y="470" type="line"/>
			<point x="256" y="588" type="line"/>
			<point x="385" y="608" type="line"/>
			<point x="351" y="470" type="line"/>
			<point x="540" y="470" type="line"/>
			<point x="515" y="368" type="line"/>
			<point x="327" y="368" type="line"/>
			<point x="267" y="118" type="line"/>
			<point x="284" y="126"/>
			<point x="312" y="132"/>
			<point x="324" y="132" type="qcurve"/>
			<point x="355" y="132"/>
			<point x="399" y="113"/>
			<point x="427" y="80"/>
			<point x="441" y="37"/>
			<point x="441" y="13" type="qcurve"/>
			<point x="441" y="-19"/>
			<point x="416" y="-82"/>
			<point x="370" y="-133"/>
			<point x="301" y="-165"/>
			<point x="258" y="-165" type="qcurve"/>
			<point x="215" y="-165"/>
			<point x="145" y="-124"/>
			<point x="132" y="-71" type="qcurve"/>
			<point x="37" y="-156" type="line"/>
			<point x="-13" y="-95" type="line"/>
			<point x="127" y="29" type="line"/>
		</contour>
		<contour>
			<point x="242" y="13" type="qcurve"/>
			<point x="236" y="-7"/>
			<point x="232" y="-28"/>
			<point x="232" y="-32" type="qcurve"/>
			<point x="232" y="-50"/>
			<point x="249" y="-78"/>
			<point x="276" y="-78" type="qcurve"/>
			<point x="291" y="-78"/>
			<point x="315" y="-64"/>
			<point x="332" y="-43"/>
			<point x="341" y="-17"/>
			<point x="341" y="-4" type="qcurve"/>
			<point x="341" y="13"/>
			<point x="325" y="38"/>
			<point x="302" y="38" type="qcurve"/>
			<point x="286" y="38"/>
			<point x="256" y="27"/>
		</contour>
	</outline>
</glyph>
<glyph name="dotlessj" format="2">
	<unicode hex="0237"/>
	<advance width="500"/>
	<outline>
		<contour>
			<point x="367" y="25" type="line"/>
			<point x="353" y="-32"/>
			<point x="314" y="-108"/>
			<point x="262" y="-152"/>
			<point x="196" y="-170"/>
			<point x="155" y="-170" type="qcurve"/>
			<point x="104" y="-170"/>
			<point x="20" y="-145"/>
			<point x="-6" y="-125" type="qcurve"/>
			<point x="42" y="-26" type="line"/>
			<point x="64" y="-40"/>
			<point x="114" y="-62"/>
			<point x="146" y="-62" type="qcurve"/>
			<point x="184" y="-62"/>
			<point x="232" y="-25"/>
			<point x="244" y="25" type="qcurve"/>
			<point x="326" y="368" type="line"/>
			<point x="136" y="368" type="line"/>
			<point x="161" y="470" type="line"/>
			<point x="474" y="470" type="line"/>
		</contour>
	</outline>
</glyph>
<glyph name="uni0239" format="2">
	<unicode hex="0239"/>
	<advance width="500"/>
	<outline>
		<contour>
			<point x="245" y="385" type="qcurve"/>
			<point x="224" y="385"/>
			<point x="185" y="340"/>
			<point x="156" y="269"/>
			<point x="138" y="180"/>
			<point x="138" y="136" type="qcurve"/>
			<point x="138" y="113"/>
			<point x="152" y="82"/>
			<point x="165" y="82" type="qcurve"/>
			<point x="176" y="82"/>
			<point x="193" y="90"/>
			<point x="204" y="98" type="qcurve"/>
			<point x="271" y="379" type="line"/>
			<point x="267" y="381"/>
			<point x="253" y="385"/>
		</contour>
		<contour>
			<point x="332" y="82" type="qcurve"/>
			<point x="353" y="82"/>
			<point x="389" y="134"/>
			<point x="416" y="209"/>
			<point x="431" y="295"/>
			<point x="431" y="329" type="qcurve"/>
			<point x="431" y="355"/>
			<point x="410" y="385"/>
			<point x="396" y="385" type="qcurve"/>
			<point x="388" y="385"/>
			<point x="373" y="381"/>
			<point x="368" y="379" type="qcurve"/>
			<point x="298" y="91" type="line"/>
			<point x="310" y="82"/>
		</contour>
		<contour>
			<point x="239" y="-165" type="line"/>
			<point x="143" y="-165" type="line"/>
			<point x="184" y="6" type="line"/>
			<point x="167" y="-4"/>
			<point x="141" y="-11"/>
			<point x="127" y="-11" type="qcurve"/>
			<point x="89" y="-11"/>
			<point x="41" y="64"/>
			<point x="41" y="127" type="qcurve"/>
			<point x="41" y="158"/>
			<point x="52" y="235"/>
			<point x="74" y="314"/>
			<point x="109" y="388"/>
			<point x="157" y="445"/>
			<point x="219" y="480"/>
			<point x="258" y="480" type="qcurve"/>
			<point x="276" y="480"/>
			<point x="316" y="467"/>
			<point x="332" y="454" type="qcurve"/>
			<point x="355" y="466"/>
			<point x="400" y="480"/>
			<point x="420" y="480" type="qcurve"/>
			<point x="475" y="480"/>
			<point x="528" y="405"/>
			<point x="528" y="333" type="qcurve"/>
			<point x="528" y="276"/>
			<point x="501" y="155"/>
			<point x="451" y="55"/>
			<point x="380" y="-10"/>
			<point x="337" y="-10" type="qcurve"/>
			<point x="319" y="-10"/>
			<point x="291" y="-3"/>
			<point x="280" y="2" type="qcurve"/>
		</contour>
	</outline>
</glyph>
<glyph name="uni023C" format="2">
	<unicode hex="023C"/>
	<advance width="500"/>
	<outline>
		<contour>
			<point x="77" y="182" type="qcurve"/>
			<point x="77" y="247"/>
			<point x="123" y="357"/>
			<point x="206" y="436"/>
			<point x="320" y="481"/>
			<point x="389" y="481" type="qcurve"/>
			<point x="397" y="481"/>
			<point x="411" y="481"/>
			<point x="418" y="480" type="qcurve"/>
			<point x="454" y="550" type="line"/>
			<point x="516" y="530" type="line"/>
			<point x="486" y="471" type="line"/>
			<point x="510" y="464"/>
			<point x="531" y="455" type="qcurve"/>
			<point x="487" y="357" type="line"/>
			<point x="466" y="367"/>
			<point x="434" y="371" type="qcurve"/>
			<point x="292" y="97" type="line"/>
			<point x="299" y="96"/>
			<point x="313" y="96"/>
			<point x="321" y="96" type="qcurve"/>
			<point x="360" y="96"/>
			<point x="427" y="111"/>
			<point x="444" y="119" type="qcurve"/>
			<point x="456" y="21" type="line"/>
			<point x="444" y="15"/>
			<point x="416" y="3"/>
			<point x="378" y="-6"/>
			<point x="327" y="-11"/>
			<point x="292" y="-11" type="qcurve"/>
			<point x="277" y="-11"/>
			<point x="251" y="-9"/>
			<point x="238" y="-7" type="qcurve"/>
			<point x="201" y="-79" type="line"/>
			<point x="142" y="-59" type="line"/>
			<point x="177" y="10" type="line"/>
			<point x="122" y="33"/>
			<point x="77" y="126"/>
		</contour>
		<contour>
			<point x="201" y="187" type="qcurve"/>
			<point x="201" y="164"/>
			<point x="214" y="128"/>
			<point x="231" y="116" type="qcurve"/>
			<point x="363" y="373" type="line"/>
			<point x="328" y="369"/>
			<point x="268" y="341"/>
			<point x="225" y="294"/>
			<point x="201" y="228"/>
		</contour>
	</outline>
</glyph>
<glyph name="uni023E" format="2">
	<unicode hex="023E"/>
	<advance width="500"/>
	<outline>
		<contour>
			<point x="-6" y="11" type="line"/>
			<point x="44" y="-41" type="line"/>
			<point x="174" y="103" type="line"/>
			<point x="150" y="0" type="line"/>
			<point x="273" y="0" type="line"/>
			<point x="342" y="288" type="line"/>
			<point x="649" y="625" type="line"/>
			<point x="598" y="677" type="line"/>
			<point x="546" y="619" type="line"/>
			<point x="135" y="619" type="line"/>
			<point x="111" y="517" type="line"/>
			<point x="274" y="517" type="line"/>
			<point x="209" y="248" type="line"/>
		</contour>
		<contour>
			<point x="397" y="517" type="line"/>
			<point x="453" y="517" type="line"/>
			<point x="377" y="433" type="line"/>
		</contour>
	</outline>
</glyph>
<glyph name="uni0241" format="2">
	<unicode hex="0241"/>
	<advance width="500"/>
	<outline>
		<contour>
			<point x="242" y="0" type="line"/>
			<point x="119" y="0" type="line"/>
			<point x="164" y="195" type="line"/>
			<point x="173" y="235"/>
			<point x="217" y="292"/>
			<point x="272" y="334"/>
			<point x="331" y="368"/>
			<point x="380" y="402"/>
			<point x="411" y="439"/>
			<point x="411" y="465" type="qcurve"/>
			<point x="411" y="489"/>
			<point x="374" y="525"/>
			<point x="334" y="525" type="qcurve"/>
			<point x="304" y="525"/>
			<point x="219" y="508"/>
			<point x="181" y="491" type="qcurve"/>
			<point x="167" y="588" type="line"/>
			<point x="207" y="610"/>
			<point x="308" y="633"/>
			<point x="359" y="633" type="qcurve"/>
			<point x="395" y="633"/>
			<point x="459" y="620"/>
			<point x="508" y="587"/>
			<point x="537" y="531"/>
			<point x="537" y="488" type="qcurve"/>
			<point x="537" y="442"/>
			<point x="504" y="378"/>
			<point x="452" y="330"/>
			<point x="390" y="290"/>
			<point x="332" y="248"/>
			<point x="287" y="195"/>
			<point x="279" y="158" type="qcurve"/>
		</contour>
	</outline>
</glyph>
<glyph name="uni0244" format="2">
	<unicode hex="0244"/>
	<advance width="500"/>
	<outline>
		<contour>
			<point x="67" y="390" type="line"/>
			<point x="43" y="292" type="line"/>
			<point x="100" y="292" type="line"/>
			<point x="88" y="238" type="line" smooth="yes"/>
			<point x="79" y="204"/>
			<point x="75" y="171"/>
			<point x="75" y="144" type="curve" smooth="yes"/>
			<point x="75" y="45"/>
			<point x="127" y="-13"/>
			<point x="238" y="-13" type="curve" smooth="yes"/>
			<point x="396" y="-13"/>
			<point x="438" y="74"/>
			<point x="472" y="220" type="curve" smooth="yes"/>
			<point x="489" y="292" type="line"/>
			<point x="544" y="292" type="line"/>
			<point x="568" y="390" type="line"/>
			<point x="513" y="390" type="line"/>
			<point x="568" y="619" type="line"/>
			<point x="445" y="619" type="line"/>
			<point x="389" y="390" type="line"/>
			<point x="246" y="390" type="line"/>
			<point x="302" y="619" type="line"/>
			<point x="179" y="619" type="line"/>
			<point x="124" y="390" type="line"/>
		</contour>
		<contour>
			<point x="255" y="94" type="curve" smooth="yes"/>
			<point x="212" y="94"/>
			<point x="197" y="117"/>
			<point x="197" y="155" type="curve" smooth="yes"/>
			<point x="197" y="179"/>
			<point x="203" y="207"/>
			<point x="211" y="239" type="curve" smooth="yes"/>
			<point x="223" y="292" type="line"/>
			<point x="366" y="292" type="line"/>
			<point x="351" y="229" type="line"/>
			<point x="329" y="125"/>
			<point x="309" y="94"/>
		</contour>
	</outline>
	<guideline y="367"/>
</glyph>
<glyph name="uni0247" format="2">
	<unicode hex="0247"/>
	<advance width="500"/>
	<outline>
		<contour>
			<point x="432" y="117" type="line"/>
			<point x="394" y="103"/>
			<point x="336" y="85"/>
			<point x="286" y="85" type="curve" smooth="yes"/>
			<point x="278" y="85" type="line"/>
			<point x="320" y="187" type="line"/>
			<point x="481" y="204"/>
			<point x="522" y="277"/>
			<point x="522" y="350" type="curve" smooth="yes"/>
			<point x="522" y="410"/>
			<point x="488" y="451"/>
			<point x="438" y="470" type="curve"/>
			<point x="463" y="530" type="line"/>
			<point x="399" y="548" type="line"/>
			<point x="371" y="482" type="line"/>
			<point x="184" y="482"/>
			<point x="76" y="336"/>
			<point x="76" y="184" type="curve" smooth="yes"/>
			<point x="76" y="84"/>
			<point x="114" y="31"/>
			<point x="171" y="6" type="curve"/>
			<point x="142" y="-62" type="line"/>
			<point x="209" y="-80" type="line"/>
			<point x="238" y="-11" type="line"/>
			<point x="249" y="-12"/>
			<point x="261" y="-13"/>
			<point x="274" y="-13" type="curve" smooth="yes"/>
			<point x="331" y="-13"/>
			<point x="388" y="-1"/>
			<point x="441" y="20" type="curve"/>
		</contour>
		<contour>
			<point x="194" y="258" type="curve"/>
			<point x="213" y="316"/>
			<point x="258" y="376"/>
			<point x="330" y="385" type="curve"/>
			<point x="279" y="262" type="line"/>
			<point x="254" y="259"/>
			<point x="226" y="258"/>
		</contour>
		<contour>
			<point x="421" y="348" type="curve" smooth="yes"/>
			<point x="421" y="323"/>
			<point x="414" y="292"/>
			<point x="357" y="276" type="curve"/>
			<point x="404" y="387" type="line"/>
			<point x="414" y="378"/>
			<point x="421" y="365"/>
		</contour>
		<contour>
			<point x="185" y="161" type="curve" smooth="yes"/>
			<point x="185" y="167"/>
			<point x="186" y="176"/>
			<point x="188" y="184" type="curve"/>
			<point x="209" y="183"/>
			<point x="227" y="182"/>
			<point x="245" y="182" type="curve"/>
			<point x="212" y="104" type="line"/>
			<point x="196" y="115"/>
			<point x="185" y="133"/>
		</contour>
	</outline>
</glyph>
<glyph name="circumflex" format="2">
	<unicode hex="02C6"/>
	<advance width="500"/>
	<outline>
		<contour>
			<point x="391" y="691" type="line"/>
			<point x="231" y="565" type="line"/>
			<point x="272" y="510" type="line"/>
			<point x="373" y="579" type="line"/>
			<point x="447" y="510" type="line"/>
			<point x="501" y="556" type="line"/>
		</contour>
	</outline>
	<guideline y="510"/>
	<guideline y="580"/>
	<guideline y="691"/>
</glyph>
<glyph name="ring" format="2">
	<unicode hex="02DA"/>
	<advance width="500"/>
	<outline>
		<contour>
			<point x="480" y="624" type="qcurve"/>
			<point x="480" y="574"/>
			<point x="417" y="522"/>
			<point x="374" y="522" type="qcurve"/>
			<point x="354" y="522"/>
			<point x="316" y="535"/>
			<point x="287" y="561"/>
			<point x="270" y="599"/>
			<point x="270" y="624" type="qcurve"/>
			<point x="270" y="649"/>
			<point x="287" y="688"/>
			<point x="316" y="714"/>
			<point x="354" y="727"/>
			<point x="374" y="727" type="qcurve"/>
			<point x="417" y="727"/>
			<point x="480" y="675"/>
		</contour>
		<contour>
			<point x="415" y="624" type="qcurve"/>
			<point x="415" y="645"/>
			<point x="391" y="666"/>
			<point x="374" y="666" type="qcurve"/>
			<point x="359" y="666"/>
			<point x="334" y="645"/>
			<point x="334" y="624" type="qcurve"/>
			<point x="334" y="604"/>
			<point x="359" y="582"/>
			<point x="374" y="582" type="qcurve"/>
			<point x="391" y="582"/>
			<point x="415" y="604"/>
		</contour>
	</outline>
</glyph>
<glyph name="tonos" format="2">
	<unicode hex="0384"/>
	<advance width="500"/>
	<outline>
		<contour>
			<point x="403" y="727" type="line"/>
			<point x="266" y="560" type="line"/>
			<point x="335" y="513" type="line"/>
			<point x="478" y="663" type="line"/>
		</contour>
	</outline>
</glyph>
<glyph name="Theta" format="2">
	<unicode hex="0398"/>
	<advance width="500"/>
	<outline>
		<contour>
			<point x="244" y="357" type="line"/>
			<point x="390" y="357" type="line"/>
			<point x="368" y="264" type="line"/>
			<point x="221" y="264" type="line"/>
		</contour>
		<contour>
			<point x="368" y="633" type="qcurve"/>
			<point x="449" y="633"/>
			<point x="540" y="528"/>
			<point x="540" y="441" type="qcurve"/>
			<point x="540" y="402"/>
			<point x="528" y="304"/>
			<point x="500" y="203"/>
			<point x="455" y="107"/>
			<point x="388" y="32"/>
			<point x="299" y="-13"/>
			<point x="242" y="-13" type="qcurve"/>
			<point x="160" y="-13"/>
			<point x="69" y="92"/>
			<point x="69" y="179" type="qcurve"/>
			<point x="69" y="218"/>
			<point x="81" y="316"/>
			<point x="109" y="417"/>
			<point x="155" y="513"/>
			<point x="221" y="588"/>
			<point x="310" y="633"/>
		</contour>
		<contour>
			<point x="255" y="94" type="qcurve"/>
			<point x="298" y="94"/>
			<point x="362" y="160"/>
			<point x="404" y="260"/>
			<point x="425" y="377"/>
			<point x="425" y="428" type="qcurve"/>
			<point x="425" y="447"/>
			<point x="418" y="483"/>
			<point x="401" y="510"/>
			<point x="374" y="526"/>
			<point x="354" y="526" type="qcurve"/>
			<point x="311" y="526"/>
			<point x="247" y="460"/>
			<point x="205" y="360"/>
			<point x="184" y="243"/>
			<point x="184" y="192" type="qcurve"/>
			<point x="184" y="153"/>
			<point x="217" y="94"/>
		</contour>
	</outline>
</glyph>
<glyph name="Lambda" format="2">
	<unicode hex="039B"/>
	<advance width="500"/>
	<outline>
		<contour>
			<point x="311" y="619" type="line"/>
			<point x="181" y="407"/>
			<point x="63" y="159"/>
			<point x="-5" y="0" type="curve"/>
			<point x="122" y="0" type="line"/>
			<point x="174" y="128"/>
			<point x="274" y="355"/>
			<point x="346" y="494" type="curve"/>
			<point x="351" y="419"/>
			<point x="353" y="326"/>
			<point x="353" y="233" type="curve" smooth="yes"/>
			<point x="353" y="146"/>
			<point x="351" y="62"/>
			<point x="349" y="0" type="curve"/>
			<point x="475" y="0" type="line"/>
			<point x="476" y="16"/>
			<point x="476" y="35"/>
			<point x="476" y="55" type="curve" smooth="yes"/>
			<point x="476" y="241"/>
			<point x="463" y="463"/>
			<point x="442" y="619" type="curve"/>
		</contour>
	</outline>
</glyph>
<glyph name="Xi" format="2">
	<unicode hex="039E"/>
	<advance width="500"/>
	<outline>
		<contour>
			<point x="142" y="515" type="line"/>
			<point x="567" y="515" type="line"/>
			<point x="592" y="619" type="line"/>
			<point x="167" y="619" type="line"/>
		</contour>
		<contour>
			<point x="471" y="275" type="line"/>
			<point x="496" y="379" type="line"/>
			<point x="147" y="379" type="line"/>
			<point x="122" y="275" type="line"/>
		</contour>
		<contour>
			<point x="19" y="0" type="line"/>
			<point x="444" y="0" type="line"/>
			<point x="469" y="104" type="line"/>
			<point x="44" y="104" type="line"/>
		</contour>
	</outline>
	<guideline x="13" y="0" angle="103.5"/>
</glyph>
<glyph name="zeta" format="2">
	<unicode hex="03B6"/>
	<advance width="500"/>
	<outline>
		<contour>
			<point x="227" y="196" type="qcurve"/>
			<point x="227" y="172"/>
			<point x="248" y="140"/>
			<point x="282" y="117"/>
			<point x="324" y="102"/>
			<point x="346" y="96" type="qcurve"/>
			<point x="402" y="79"/>
			<point x="469" y="32"/>
			<point x="469" y="-16" type="qcurve"/>
			<point x="469" y="-51"/>
			<point x="428" y="-127"/>
			<point x="380" y="-170" type="qcurve"/>
			<point x="293" y="-124" type="line"/>
			<point x="313" y="-103"/>
			<point x="343" y="-65"/>
			<point x="343" y="-46" type="qcurve"/>
			<point x="343" y="-26"/>
			<point x="299" y="-6"/>
			<point x="266" y="4" type="qcurve"/>
			<point x="233" y="13"/>
			<point x="172" y="36"/>
			<point x="125" y="72"/>
			<point x="97" y="127"/>
			<point x="97" y="169" type="qcurve"/>
			<point x="97" y="212"/>
			<point x="132" y="304"/>
			<point x="210" y="406"/>
			<point x="333" y="519"/>
			<point x="420" y="584" type="qcurve"/>
			<point x="201" y="584" type="line"/>
			<point x="224" y="687" type="line"/>
			<point x="586" y="687" type="line"/>
			<point x="560" y="582" type="line"/>
			<point x="496" y="536"/>
			<point x="376" y="435"/>
			<point x="283" y="334"/>
			<point x="227" y="237"/>
		</contour>
	</outline>
</glyph>
<glyph name="omega" format="2">
	<unicode hex="03C9"/>
	<advance width="500"/>
	<outline>
		<contour>
			<point x="330" y="202" type="line"/>
			<point x="321" y="163"/>
			<point x="321" y="138" type="qcurve"/>
			<point x="321" y="91"/>
			<point x="348" y="91" type="qcurve"/>
			<point x="366" y="91"/>
			<point x="392" y="137"/>
			<point x="410" y="201"/>
			<point x="418" y="271"/>
			<point x="418" y="294" type="qcurve"/>
			<point x="418" y="339"/>
			<point x="401" y="417"/>
			<point x="390" y="447" type="qcurve"/>
			<point x="484" y="480" type="line"/>
			<point x="491" y="463"/>
			<point x="505" y="416"/>
			<point x="516" y="366"/>
			<point x="522" y="318"/>
			<point x="522" y="300" type="qcurve"/>
			<point x="522" y="245"/>
			<point x="509" y="134"/>
			<point x="472" y="45"/>
			<point x="404" y="-11"/>
			<point x="350" y="-11" type="qcurve"/>
			<point x="317" y="-11"/>
			<point x="264" y="25"/>
			<point x="256" y="60" type="qcurve"/>
			<point x="233" y="22"/>
			<point x="171" y="-11"/>
			<point x="139" y="-11" type="qcurve"/>
			<point x="88" y="-11"/>
			<point x="37" y="61"/>
			<point x="37" y="118" type="qcurve"/>
			<point x="37" y="172"/>
			<point x="62" y="274"/>
			<point x="105" y="367"/>
			<point x="163" y="449"/>
			<point x="196" y="482" type="qcurve"/>
			<point x="276" y="442" type="line"/>
			<point x="247" y="412"/>
			<point x="198" y="341"/>
			<point x="163" y="263"/>
			<point x="143" y="182"/>
			<point x="143" y="142" type="qcurve"/>
			<point x="143" y="116"/>
			<point x="161" y="91"/>
			<point x="172" y="91" type="qcurve"/>
			<point x="190" y="91"/>
			<point x="218" y="139"/>
			<point x="234" y="202" type="qcurve"/>
			<point x="252" y="276" type="line"/>
			<point x="348" y="276" type="line"/>
		</contour>
	</outline>
</glyph>
<glyph name="afii10059" format="2">
	<unicode hex="040A"/>
	<advance width="500"/>
	<outline>
		<contour>
			<point x="434" y="619" type="line"/>
			<point x="380" y="390" type="line"/>
			<point x="385" y="391"/>
			<point x="396" y="391"/>
			<point x="401" y="391" type="qcurve"/>
			<point x="428" y="391"/>
			<point x="473" y="370"/>
			<point x="504" y="334"/>
			<point x="522" y="286"/>
			<point x="522" y="258" type="qcurve"/>
			<point x="522" y="210"/>
			<point x="497" y="115"/>
			<point x="445" y="40"/>
			<point x="366" y="-6"/>
			<point x="312" y="-6" type="qcurve"/>
			<point x="281" y="-6"/>
			<point x="226" y="0"/>
			<point x="195" y="9" type="qcurve"/>
			<point x="265" y="304" type="line"/>
			<point x="180" y="304" type="line"/>
			<point x="106" y="0" type="line"/>
			<point x="13" y="0" type="line"/>
			<point x="163" y="619" type="line"/>
			<point x="255" y="619" type="line"/>
			<point x="200" y="388" type="line"/>
			<point x="285" y="388" type="line"/>
			<point x="341" y="619" type="line"/>
		</contour>
		<contour>
			<point x="372" y="311" type="qcurve"/>
			<point x="370" y="311"/>
			<point x="363" y="311"/>
			<point x="360" y="310" type="qcurve"/>
			<point x="304" y="76" type="line"/>
			<point x="314" y="74"/>
			<point x="321" y="74" type="qcurve"/>
			<point x="348" y="74"/>
			<point x="389" y="108"/>
			<point x="416" y="159"/>
			<point x="430" y="219"/>
			<point x="430" y="245" type="qcurve"/>
			<point x="430" y="283"/>
			<point x="397" y="311"/>
		</contour>
	</outline>
</glyph>
<glyph name="afii10018" format="2">
	<unicode hex="0411"/>
	<advance width="500"/>
	<outline>
		<contour>
			<point x="495" y="233" type="qcurve"/>
			<point x="495" y="171"/>
			<point x="449" y="80"/>
			<point x="368" y="21"/>
			<point x="257" y="-8"/>
			<point x="193" y="-8" type="qcurve"/>
			<point x="157" y="-8"/>
			<point x="76" y="0"/>
			<point x="33" y="11" type="qcurve"/>
			<point x="179" y="619" type="line"/>
			<point x="530" y="619" type="line"/>
			<point x="506" y="517" type="line"/>
			<point x="277" y="517" type="line"/>
			<point x="248" y="399" type="line"/>
			<point x="299" y="399" type="line"/>
			<point x="399" y="399"/>
			<point x="495" y="308"/>
		</contour>
		<contour>
			<point x="371" y="220" type="qcurve"/>
			<point x="371" y="254"/>
			<point x="328" y="294"/>
			<point x="270" y="294" type="qcurve"/>
			<point x="222" y="294" type="line"/>
			<point x="177" y="101" type="line"/>
			<point x="195" y="98"/>
			<point x="214" y="98" type="qcurve"/>
			<point x="289" y="98"/>
			<point x="371" y="161"/>
		</contour>
	</outline>
</glyph>
<glyph name="afii10025" format="2">
	<unicode hex="0417"/>
	<advance width="500"/>
	<outline>
		<contour>
			<point x="183" y="371" type="line"/>
			<point x="258" y="371" type="line"/>
			<point x="284" y="371"/>
			<point x="336" y="381"/>
			<point x="377" y="405"/>
			<point x="403" y="443"/>
			<point x="403" y="471" type="qcurve"/>
			<point x="403" y="498"/>
			<point x="359" y="526"/>
			<point x="322" y="526" type="qcurve"/>
			<point x="290" y="526"/>
			<point x="217" y="509"/>
			<point x="179" y="489" type="qcurve"/>
			<point x="157" y="591" type="line"/>
			<point x="199" y="611"/>
			<point x="292" y="632"/>
			<point x="353" y="632" type="qcurve"/>
			<point x="403" y="632"/>
			<point x="469" y="608"/>
			<point x="509" y="569"/>
			<point x="526" y="519"/>
			<point x="526" y="493" type="qcurve"/>
			<point x="526" y="439"/>
			<point x="468" y="352"/>
			<point x="397" y="329" type="qcurve"/>
			<point x="425" y="317"/>
			<point x="459" y="285"/>
			<point x="479" y="250"/>
			<point x="486" y="215"/>
			<point x="486" y="200" type="qcurve"/>
			<point x="486" y="164"/>
			<point x="460" y="89"/>
			<point x="396" y="27"/>
			<point x="287" y="-13"/>
			<point x="204" y="-13" type="qcurve"/>
			<point x="142" y="-13"/>
			<point x="52" y="13"/>
			<point x="9" y="38" type="qcurve"/>
			<point x="66" y="136" type="line"/>
			<point x="101" y="113"/>
			<point x="173" y="94"/>
			<point x="216" y="94" type="qcurve"/>
			<point x="254" y="94"/>
			<point x="310" y="111"/>
			<point x="346" y="138"/>
			<point x="363" y="174"/>
			<point x="363" y="194" type="qcurve"/>
			<point x="363" y="229"/>
			<point x="309" y="270"/>
			<point x="252" y="270" type="qcurve"/>
			<point x="160" y="270" type="line"/>
		</contour>
	</outline>
	<guideline y="51"/>
</glyph>
<glyph name="afii10029" format="2">
	<unicode hex="041B"/>
	<advance width="500"/>
	<outline>
		<contour>
			<point x="8" y="93" type="line"/>
			<point x="60" y="103"/>
			<point x="132" y="178"/>
			<point x="184" y="292"/>
			<point x="222" y="435"/>
			<point x="240" y="513" type="qcurve"/>
			<point x="265" y="619" type="line"/>
			<point x="588" y="619" type="line"/>
			<point x="440" y="0" type="line"/>
			<point x="320" y="0" type="line"/>
			<point x="444" y="517" type="line"/>
			<point x="349" y="517" type="line"/>
			<point x="333" y="454"/>
			<point x="301" y="328"/>
			<point x="263" y="213"/>
			<point x="216" y="113"/>
			<point x="153" y="38"/>
			<point x="71" y="-8"/>
			<point x="18" y="-12" type="qcurve"/>
		</contour>
	</outline>
</glyph>
<glyph name="afii10037" format="2">
	<unicode hex="0423"/>
	<advance width="500"/>
	<outline>
		<contour>
			<point x="621" y="619" type="line"/>
			<point x="584" y="549"/>
			<point x="520" y="433"/>
			<point x="461" y="331"/>
			<point x="404" y="237"/>
			<point x="374" y="190" type="qcurve"/>
			<point x="337" y="131"/>
			<point x="272" y="53"/>
			<point x="210" y="7"/>
			<point x="148" y="-13"/>
			<point x="115" y="-13" type="qcurve"/>
			<point x="85" y="-13"/>
			<point x="34" y="-1"/>
			<point x="8" y="10" type="qcurve"/>
			<point x="51" y="116" type="line"/>
			<point x="85" y="98"/>
			<point x="129" y="98" type="qcurve"/>
			<point x="161" y="98"/>
			<point x="215" y="142"/>
			<point x="248" y="196" type="qcurve"/>
			<point x="207" y="314"/>
			<point x="149" y="534"/>
			<point x="134" y="619" type="qcurve"/>
			<point x="264" y="619" type="line"/>
			<point x="270" y="583"/>
			<point x="285" y="503"/>
			<point x="301" y="424"/>
			<point x="319" y="351"/>
			<point x="328" y="322" type="qcurve"/>
			<point x="352" y="365"/>
			<point x="399" y="452"/>
			<point x="439" y="531"/>
			<point x="471" y="597"/>
			<point x="480" y="619" type="qcurve"/>
		</contour>
	</outline>
</glyph>
<glyph name="afii10041" format="2">
	<unicode hex="0427"/>
	<advance width="500"/>
	<outline>
		<contour>
			<point x="248" y="437" type="line"/>
			<point x="244" y="419"/>
			<point x="239" y="389"/>
			<point x="239" y="375" type="qcurve"/>
			<point x="239" y="345"/>
			<point x="267" y="311"/>
			<point x="309" y="311" type="qcurve"/>
			<point x="325" y="311"/>
			<point x="363" y="314"/>
			<point x="380" y="319" type="qcurve"/>
			<point x="453" y="619" type="line"/>
			<point x="576" y="619" type="line"/>
			<point x="428" y="0" type="line"/>
			<point x="305" y="0" type="line"/>
			<point x="356" y="217" type="line"/>
			<point x="342" y="213"/>
			<point x="298" y="207"/>
			<point x="275" y="207" type="qcurve"/>
			<point x="230" y="207"/>
			<point x="169" y="229"/>
			<point x="131" y="270"/>
			<point x="114" y="326"/>
			<point x="114" y="361" type="qcurve"/>
			<point x="114" y="378"/>
			<point x="119" y="412"/>
			<point x="123" y="430" type="qcurve"/>
			<point x="169" y="619" type="line"/>
			<point x="292" y="619" type="line"/>
		</contour>
	</outline>
</glyph>
<glyph name="afii10045" format="2">
	<unicode hex="042B"/>
	<advance width="500"/>
	<outline>
		<contour>
			<point x="196" y="320" type="qcurve"/>
			<point x="188" y="320"/>
			<point x="184" y="319" type="qcurve"/>
			<point x="128" y="85" type="line"/>
			<point x="141" y="82"/>
			<point x="159" y="82" type="qcurve"/>
			<point x="186" y="82"/>
			<point x="225" y="116"/>
			<point x="252" y="167"/>
			<point x="265" y="225"/>
			<point x="265" y="248" type="qcurve"/>
			<point x="265" y="283"/>
			<point x="234" y="320"/>
		</contour>
		<contour>
			<point x="451" y="0" type="line"/>
			<point x="355" y="0" type="line"/>
			<point x="504" y="619" type="line"/>
			<point x="599" y="619" type="line"/>
		</contour>
		<contour>
			<point x="227" y="411" type="qcurve"/>
			<point x="293" y="411"/>
			<point x="361" y="333"/>
			<point x="361" y="267" type="qcurve"/>
			<point x="361" y="217"/>
			<point x="336" y="119"/>
			<point x="283" y="41"/>
			<point x="199" y="-8"/>
			<point x="140" y="-8" type="qcurve"/>
			<point x="111" y="-8"/>
			<point x="45" y="-1"/>
			<point x="14" y="9" type="qcurve"/>
			<point x="161" y="619" type="line"/>
			<point x="256" y="619" type="line"/>
			<point x="206" y="410" type="line"/>
			<point x="211" y="411"/>
			<point x="222" y="411"/>
		</contour>
	</outline>
	<guideline x="458" y="0" angle="103.5"/>
</glyph>
<glyph name="afii10046" format="2">
	<unicode hex="042C"/>
	<advance width="499"/>
	<outline>
		<contour>
			<point x="305" y="405" type="qcurve"/>
			<point x="405" y="405"/>
			<point x="498" y="313"/>
			<point x="498" y="238" type="qcurve"/>
			<point x="498" y="174"/>
			<point x="452" y="81"/>
			<point x="371" y="21"/>
			<point x="260" y="-8"/>
			<point x="196" y="-8" type="qcurve"/>
			<point x="160" y="-8"/>
			<point x="80" y="0"/>
			<point x="37" y="11" type="qcurve"/>
			<point x="183" y="619" type="line"/>
			<point x="306" y="619" type="line"/>
			<point x="254" y="400" type="line"/>
			<point x="282" y="405"/>
		</contour>
		<contour>
			<point x="275" y="303" type="qcurve"/>
			<point x="266" y="303"/>
			<point x="240" y="302"/>
			<point x="230" y="300" type="qcurve"/>
			<point x="181" y="100" type="line"/>
			<point x="190" y="99"/>
			<point x="207" y="98"/>
			<point x="218" y="98" type="qcurve"/>
			<point x="293" y="98"/>
			<point x="375" y="164"/>
			<point x="375" y="224" type="qcurve"/>
			<point x="375" y="241"/>
			<point x="366" y="270"/>
			<point x="343" y="291"/>
			<point x="304" y="303"/>
		</contour>
	</outline>
	<guideline x="157" y="0" angle="103.5"/>
</glyph>
<glyph name="afii10077" format="2">
	<unicode hex="043B"/>
	<advance width="500"/>
	<outline>
		<contour>
			<point x="18" y="-12" type="line"/>
			<point x="204" y="-3"/>
			<point x="254" y="196"/>
			<point x="301" y="368" type="curve"/>
			<point x="388" y="368" type="line"/>
			<point x="301" y="0" type="line"/>
			<point x="421" y="0" type="line"/>
			<point x="535" y="470" type="line"/>
			<point x="215" y="470" type="line"/>
			<point x="202" y="416" type="line" smooth="yes"/>
			<point x="182" y="333"/>
			<point x="154" y="220"/>
			<point x="108" y="157" type="curve" smooth="yes"/>
			<point x="87" y="129"/>
			<point x="69" y="103"/>
			<point x="12" y="93" type="curve"/>
		</contour>
	</outline>
</glyph>
<glyph name="afii10078" format="2">
	<unicode hex="043C"/>
	<advance width="500"/>
	<outline>
		<contour>
			<point x="254" y="470" type="line"/>
			<point x="257" y="449"/>
			<point x="263" y="388"/>
			<point x="271" y="320"/>
			<point x="279" y="250"/>
			<point x="282" y="219" type="qcurve"/>
			<point x="302" y="253"/>
			<point x="345" y="325"/>
			<point x="385" y="391"/>
			<point x="420" y="449"/>
			<point x="433" y="470" type="qcurve"/>
			<point x="538" y="470" type="line"/>
			<point x="530" y="408"/>
			<point x="514" y="291"/>
			<point x="496" y="176"/>
			<point x="475" y="61"/>
			<point x="463" y="0" type="qcurve"/>
			<point x="350" y="0" type="line"/>
			<point x="432" y="332" type="line"/>
			<point x="296" y="97" type="line"/>
			<point x="214" y="97" type="line"/>
			<point x="194" y="332" type="line"/>
			<point x="118" y="0" type="line"/>
			<point x="6" y="0" type="line"/>
			<point x="22" y="58"/>
			<point x="59" y="182"/>
			<point x="97" y="305"/>
			<point x="135" y="421"/>
			<point x="154" y="470" type="qcurve"/>
		</contour>
	</outline>
</glyph>
<glyph name="afii10093" format="2">
	<unicode hex="044B"/>
	<advance width="500"/>
	<outline>
		<contour>
			<point x="463" y="470" type="line"/>
			<point x="557" y="470" type="line"/>
			<point x="445" y="0" type="line"/>
			<point x="350" y="0" type="line"/>
		</contour>
		<contour>
			<point x="163" y="81" type="qcurve"/>
			<point x="186" y="81"/>
			<point x="219" y="96"/>
			<point x="240" y="121"/>
			<point x="250" y="154"/>
			<point x="250" y="171" type="qcurve"/>
			<point x="250" y="192"/>
			<point x="222" y="221"/>
			<point x="179" y="221" type="qcurve"/>
			<point x="164" y="221" type="line"/>
			<point x="132" y="84" type="line"/>
			<point x="145" y="81"/>
		</contour>
		<contour>
			<point x="145" y="-8" type="qcurve"/>
			<point x="116" y="-8"/>
			<point x="51" y="-1"/>
			<point x="20" y="9" type="qcurve"/>
			<point x="129" y="470" type="line"/>
			<point x="224" y="470" type="line"/>
			<point x="186" y="310" type="line"/>
			<point x="191" y="311"/>
			<point x="204" y="312"/>
			<point x="209" y="312" type="qcurve"/>
			<point x="275" y="312"/>
			<point x="345" y="245"/>
			<point x="345" y="189" type="qcurve"/>
			<point x="345" y="141"/>
			<point x="314" y="68"/>
			<point x="260" y="18"/>
			<point x="187" y="-8"/>
		</contour>
	</outline>
	<guideline y="58"/>
	<guideline y="230"/>
</glyph>
<glyph name="uni0472" format="2">
	<unicode hex="0472"/>
	<advance width="500"/>
	<outline>
		<contour>
			<point x="367" y="633" type="qcurve"/>
			<point x="448" y="633"/>
			<point x="540" y="528"/>
			<point x="540" y="441" type="qcurve"/>
			<point x="540" y="402"/>
			<point x="528" y="304"/>
			<point x="500" y="203"/>
			<point x="454" y="107"/>
			<point x="388" y="32"/>
			<point x="299" y="-13"/>
			<point x="241" y="-13" type="qcurve"/>
			<point x="159" y="-13"/>
			<point x="67" y="92"/>
			<point x="67" y="179" type="qcurve"/>
			<point x="67" y="218"/>
			<point x="79" y="316"/>
			<point x="108" y="417"/>
			<point x="153" y="513"/>
			<point x="220" y="588"/>
			<point x="309" y="633"/>
		</contour>
		<contour>
			<point x="373" y="329" type="qcurve"/>
			<point x="383" y="329"/>
			<point x="398" y="331"/>
			<point x="409" y="336" type="qcurve"/>
			<point x="413" y="362"/>
			<point x="417" y="410"/>
			<point x="417" y="432" type="qcurve"/>
			<point x="417" y="471"/>
			<point x="390" y="526"/>
			<point x="353" y="526" type="qcurve"/>
			<point x="327" y="526"/>
			<point x="285" y="498"/>
			<point x="250" y="452"/>
			<point x="223" y="389"/>
			<point x="213" y="355" type="qcurve"/>
			<point x="230" y="363"/>
			<point x="256" y="370"/>
			<point x="271" y="370" type="qcurve"/>
			<point x="293" y="370"/>
			<point x="320" y="357"/>
			<point x="340" y="342"/>
			<point x="359" y="329"/>
		</contour>
		<contour>
			<point x="255" y="94" type="qcurve"/>
			<point x="279" y="94"/>
			<point x="320" y="119"/>
			<point x="353" y="162"/>
			<point x="379" y="219"/>
			<point x="389" y="251" type="qcurve"/>
			<point x="378" y="247"/>
			<point x="363" y="245"/>
			<point x="352" y="245" type="qcurve"/>
			<point x="330" y="245"/>
			<point x="303" y="258"/>
			<point x="283" y="273"/>
			<point x="264" y="286"/>
			<point x="250" y="286" type="qcurve"/>
			<point x="236" y="286"/>
			<point x="214" y="279"/>
			<point x="196" y="271" type="qcurve"/>
			<point x="190" y="226"/>
			<point x="190" y="188" type="qcurve"/>
			<point x="190" y="149"/>
			<point x="217" y="94"/>
		</contour>
	</outline>
</glyph>
<glyph name="uni0474" format="2">
	<unicode hex="0474"/>
	<advance width="500"/>
	<outline>
		<contour>
			<point x="141" y="0" type="line"/>
			<point x="136" y="67"/>
			<point x="129" y="220"/>
			<point x="125" y="380"/>
			<point x="125" y="542"/>
			<point x="128" y="619" type="qcurve"/>
			<point x="254" y="619" type="line"/>
			<point x="251" y="555"/>
			<point x="245" y="440"/>
			<point x="241" y="326"/>
			<point x="238" y="207"/>
			<point x="237" y="139" type="qcurve"/>
			<point x="262" y="196"/>
			<point x="304" y="291"/>
			<point x="341" y="374"/>
			<point x="375" y="451"/>
			<point x="393" y="491" type="qcurve"/>
			<point x="411" y="532"/>
			<point x="446" y="585"/>
			<point x="484" y="616"/>
			<point x="528" y="628"/>
			<point x="555" y="628" type="qcurve"/>
			<point x="580" y="628"/>
			<point x="615" y="614"/>
			<point x="641" y="588" type="qcurve"/>
			<point x="575" y="513" type="line"/>
			<point x="563" y="526"/>
			<point x="552" y="526" type="qcurve"/>
			<point x="541" y="526"/>
			<point x="524" y="509"/>
			<point x="507" y="482"/>
			<point x="492" y="449"/>
			<point x="485" y="433" type="qcurve"/>
			<point x="461" y="382"/>
			<point x="420" y="298"/>
			<point x="373" y="205"/>
			<point x="312" y="86"/>
			<point x="266" y="0" type="qcurve"/>
		</contour>
	</outline>
</glyph>
<glyph name="uni0475" format="2">
	<unicode hex="0475"/>
	<advance width="500"/>
	<outline>
		<contour>
			<point x="450" y="343" type="qcurve"/>
			<point x="393" y="247"/>
			<point x="284" y="66"/>
			<point x="239" y="0" type="qcurve"/>
			<point x="146" y="0" type="line"/>
			<point x="127" y="89"/>
			<point x="104" y="328"/>
			<point x="102" y="470" type="qcurve"/>
			<point x="220" y="470" type="line"/>
			<point x="218" y="434"/>
			<point x="217" y="350"/>
			<point x="218" y="265"/>
			<point x="220" y="184"/>
			<point x="222" y="150" type="qcurve"/>
			<point x="240" y="182"/>
			<point x="268" y="234"/>
			<point x="295" y="282"/>
			<point x="323" y="333"/>
			<point x="339" y="364" type="qcurve"/>
			<point x="366" y="416"/>
			<point x="444" y="482"/>
			<point x="503" y="482" type="qcurve"/>
			<point x="523" y="482"/>
			<point x="566" y="475"/>
			<point x="588" y="464" type="qcurve"/>
			<point x="543" y="371" type="line"/>
			<point x="532" y="377"/>
			<point x="514" y="380"/>
			<point x="506" y="380" type="qcurve"/>
			<point x="490" y="380"/>
			<point x="462" y="364"/>
		</contour>
	</outline>
	<guideline y="380"/>
</glyph>
<glyph name="uni048C" format="2">
	<unicode hex="048C"/>
	<advance width="500"/>
	<outline>
		<contour>
			<point x="269" y="392" type="line"/>
			<point x="277" y="394"/>
			<point x="298" y="394"/>
			<point x="305" y="394" type="qcurve"/>
			<point x="391" y="394"/>
			<point x="494" y="309"/>
			<point x="494" y="236" type="qcurve"/>
			<point x="494" y="180"/>
			<point x="454" y="90"/>
			<point x="379" y="27"/>
			<point x="273" y="-8"/>
			<point x="208" y="-8" type="qcurve"/>
			<point x="174" y="-8"/>
			<point x="93" y="0"/>
			<point x="58" y="11" type="qcurve"/>
			<point x="167" y="463" type="line"/>
			<point x="107" y="463" type="line"/>
			<point x="130" y="561" type="line"/>
			<point x="190" y="561" type="line"/>
			<point x="204" y="619" type="line"/>
			<point x="323" y="619" type="line"/>
			<point x="310" y="561" type="line"/>
			<point x="407" y="561" type="line"/>
			<point x="384" y="463" type="line"/>
			<point x="286" y="463" type="line"/>
		</contour>
		<contour>
			<point x="274" y="296" type="qcurve"/>
			<point x="271" y="296"/>
			<point x="255" y="296"/>
			<point x="246" y="295" type="qcurve"/>
			<point x="200" y="100" type="line"/>
			<point x="206" y="99"/>
			<point x="227" y="99"/>
			<point x="233" y="99" type="qcurve"/>
			<point x="302" y="99"/>
			<point x="372" y="170"/>
			<point x="372" y="226" type="qcurve"/>
			<point x="372" y="260"/>
			<point x="319" y="296"/>
		</contour>
	</outline>
</glyph>
<glyph name="uni0499" format="2">
	<unicode hex="0499"/>
	<advance width="500"/>
	<outline>
		<contour>
			<point x="257" y="-25" type="qcurve"/>
			<point x="279" y="-36"/>
			<point x="297" y="-66"/>
			<point x="297" y="-84" type="qcurve"/>
			<point x="297" y="-125"/>
			<point x="228" y="-170"/>
			<point x="174" y="-170" type="qcurve"/>
			<point x="126" y="-170"/>
			<point x="88" y="-150" type="qcurve"/>
			<point x="114" y="-92" type="line"/>
			<point x="125" y="-98"/>
			<point x="154" y="-105"/>
			<point x="168" y="-105" type="qcurve"/>
			<point x="191" y="-105"/>
			<point x="206" y="-87"/>
			<point x="206" y="-80" type="qcurve"/>
			<point x="206" y="-69"/>
			<point x="195" y="-54"/>
			<point x="180" y="-49" type="qcurve"/>
			<point x="162" y="-43" type="line"/>
			<point x="167" y="-34"/>
			<point x="177" y="-19"/>
			<point x="182" y="-12" type="qcurve"/>
			<point x="141" y="-10"/>
			<point x="64" y="5"/>
			<point x="35" y="17" type="qcurve"/>
			<point x="79" y="113" type="line"/>
			<point x="104" y="102"/>
			<point x="171" y="89"/>
			<point x="209" y="89" type="qcurve"/>
			<point x="231" y="89"/>
			<point x="278" y="95"/>
			<point x="316" y="109"/>
			<point x="340" y="132"/>
			<point x="340" y="149" type="qcurve"/>
			<point x="340" y="162"/>
			<point x="325" y="180"/>
			<point x="300" y="190"/>
			<point x="268" y="194"/>
			<point x="251" y="194" type="qcurve"/>
			<point x="169" y="194" type="line"/>
			<point x="190" y="283" type="line"/>
			<point x="276" y="283" type="line"/>
			<point x="324" y="283"/>
			<point x="373" y="316"/>
			<point x="373" y="339" type="qcurve"/>
			<point x="373" y="351"/>
			<point x="358" y="367"/>
			<point x="334" y="377"/>
			<point x="303" y="382"/>
			<point x="287" y="382" type="qcurve"/>
			<point x="236" y="382"/>
			<point x="175" y="369"/>
			<point x="158" y="363" type="qcurve"/>
			<point x="154" y="455" type="line"/>
			<point x="190" y="469"/>
			<point x="281" y="482"/>
			<point x="323" y="482" type="qcurve"/>
			<point x="369" y="482"/>
			<point x="434" y="463"/>
			<point x="475" y="431"/>
			<point x="493" y="387"/>
			<point x="493" y="363" type="qcurve"/>
			<point x="493" y="334"/>
			<point x="453" y="263"/>
			<point x="401" y="241" type="qcurve"/>
			<point x="434" y="229"/>
			<point x="463" y="177"/>
			<point x="463" y="150" type="qcurve"/>
			<point x="463" y="112"/>
			<point x="432" y="56"/>
			<point x="378" y="17"/>
			<point x="307" y="-6"/>
			<point x="267" y="-10" type="qcurve"/>
			<point x="264" y="-14"/>
			<point x="259" y="-21"/>
		</contour>
	</outline>
</glyph>
<glyph name="uni049B" format="2">
	<unicode hex="049B"/>
	<advance width="500"/>
	<outline>
		<contour>
			<point x="488" y="99" type="line"/>
			<point x="432" y="-129" type="line"/>
			<point x="328" y="-129" type="line"/>
			<point x="360" y="0" type="line"/>
			<point x="339" y="0" type="line"/>
			<point x="331" y="25"/>
			<point x="306" y="89"/>
			<point x="277" y="153"/>
			<point x="245" y="209"/>
			<point x="230" y="227" type="qcurve"/>
			<point x="176" y="0" type="line"/>
			<point x="54" y="0" type="line"/>
			<point x="167" y="470" type="line"/>
			<point x="288" y="470" type="line"/>
			<point x="246" y="290" type="line"/>
			<point x="264" y="305"/>
			<point x="312" y="349"/>
			<point x="360" y="398"/>
			<point x="406" y="449"/>
			<point x="423" y="470" type="qcurve"/>
			<point x="564" y="470" type="line"/>
			<point x="516" y="412"/>
			<point x="398" y="299"/>
			<point x="344" y="254" type="qcurve"/>
			<point x="366" y="226"/>
			<point x="412" y="143"/>
			<point x="432" y="99" type="qcurve"/>
		</contour>
	</outline>
</glyph>
<glyph name="uni049E" format="2">
	<unicode hex="049E"/>
	<advance width="500"/>
	<outline>
		<contour>
			<point x="613" y="619" type="line"/>
			<point x="590" y="588"/>
			<point x="532" y="514"/>
			<point x="465" y="435"/>
			<point x="391" y="357"/>
			<point x="352" y="322" type="qcurve"/>
			<point x="368" y="301"/>
			<point x="403" y="245"/>
			<point x="437" y="168"/>
			<point x="471" y="67"/>
			<point x="488" y="0" type="qcurve"/>
			<point x="367" y="0" type="line"/>
			<point x="360" y="35"/>
			<point x="335" y="116"/>
			<point x="302" y="195"/>
			<point x="262" y="266"/>
			<point x="241" y="290" type="qcurve"/>
			<point x="171" y="0" type="line"/>
			<point x="55" y="0" type="line"/>
			<point x="176" y="502" type="line"/>
			<point x="119" y="502" type="line"/>
			<point x="139" y="588" type="line"/>
			<point x="196" y="588" type="line"/>
			<point x="213" y="659" type="line"/>
			<point x="330" y="659" type="line"/>
			<point x="313" y="588" type="line"/>
			<point x="371" y="588" type="line"/>
			<point x="351" y="502" type="line"/>
			<point x="292" y="502" type="line"/>
			<point x="257" y="357" type="line"/>
			<point x="290" y="385"/>
			<point x="354" y="454"/>
			<point x="411" y="525"/>
			<point x="460" y="592"/>
			<point x="478" y="619" type="qcurve"/>
		</contour>
	</outline>
	<guideline x="-10" y="0" angle="103.5"/>
	<guideline x="171" y="0" angle="103.5"/>
</glyph>
<glyph name="uni04A1" format="2">
	<unicode hex="04A1"/>
	<advance width="500"/>
	<outline>
		<contour>
			<point x="93" y="371" type="line"/>
			<point x="117" y="470" type="line"/>
			<point x="309" y="470" type="line"/>
			<point x="265" y="287" type="line"/>
			<point x="284" y="303"/>
			<point x="328" y="349"/>
			<point x="373" y="398"/>
			<point x="415" y="449"/>
			<point x="432" y="470" type="qcurve"/>
			<point x="569" y="470" type="line"/>
			<point x="521" y="412"/>
			<point x="415" y="299"/>
			<point x="361" y="254" type="qcurve"/>
			<point x="379" y="232"/>
			<point x="413" y="169"/>
			<point x="444" y="99"/>
			<point x="470" y="29"/>
			<point x="480" y="0" type="qcurve"/>
			<point x="348" y="0" type="line"/>
			<point x="340" y="25"/>
			<point x="319" y="89"/>
			<point x="294" y="153"/>
			<point x="266" y="209"/>
			<point x="251" y="227" type="qcurve"/>
			<point x="196" y="0" type="line"/>
			<point x="81" y="0" type="line"/>
			<point x="171" y="371" type="line"/>
		</contour>
	</outline>
</glyph>
<glyph name="uni04A6" format="2">
	<unicode hex="04A6"/>
	<advance width="500"/>
	<outline>
		<contour>
			<point x="421" y="619" type="line"/>
			<point x="367" y="393" type="line"/>
			<point x="380" y="396"/>
			<point x="394" y="396" type="qcurve"/>
			<point x="452" y="396"/>
			<point x="505" y="319"/>
			<point x="505" y="237" type="qcurve"/>
			<point x="505" y="162"/>
			<point x="470" y="17"/>
			<point x="404" y="-96"/>
			<point x="311" y="-165"/>
			<point x="253" y="-165" type="qcurve"/>
			<point x="245" y="-165"/>
			<point x="228" y="-164"/>
			<point x="220" y="-163" type="qcurve"/>
			<point x="246" y="-71" type="line"/>
			<point x="253" y="-72"/>
			<point x="262" y="-72"/>
			<point x="270" y="-72" type="qcurve"/>
			<point x="295" y="-72"/>
			<point x="344" y="-22"/>
			<point x="383" y="63"/>
			<point x="406" y="175"/>
			<point x="406" y="238" type="qcurve"/>
			<point x="406" y="266"/>
			<point x="387" y="303"/>
			<point x="360" y="303" type="qcurve"/>
			<point x="355" y="303"/>
			<point x="345" y="301" type="qcurve"/>
			<point x="273" y="0" type="line"/>
			<point x="177" y="0" type="line"/>
			<point x="303" y="526" type="line"/>
			<point x="237" y="526" type="line"/>
			<point x="111" y="0" type="line"/>
			<point x="15" y="0" type="line"/>
			<point x="163" y="619" type="line"/>
		</contour>
	</outline>
	<guideline y="315"/>
	<guideline y="388"/>
</glyph>
<glyph name="uni04A7" format="2">
	<unicode hex="04A7"/>
	<advance width="500"/>
	<outline>
		<contour>
			<point x="103" y="457" type="line"/>
			<point x="133" y="466"/>
			<point x="202" y="480"/>
			<point x="235" y="480" type="qcurve"/>
			<point x="271" y="480"/>
			<point x="318" y="462"/>
			<point x="347" y="429"/>
			<point x="359" y="384"/>
			<point x="359" y="358" type="qcurve"/>
			<point x="359" y="342"/>
			<point x="355" y="307"/>
			<point x="352" y="289" type="qcurve"/>
			<point x="360" y="291"/>
			<point x="374" y="293"/>
			<point x="382" y="293" type="qcurve"/>
			<point x="405" y="293"/>
			<point x="446" y="278"/>
			<point x="477" y="245"/>
			<point x="495" y="193"/>
			<point x="495" y="156" type="qcurve"/>
			<point x="495" y="107"/>
			<point x="473" y="-6"/>
			<point x="420" y="-102"/>
			<point x="331" y="-165"/>
			<point x="263" y="-165" type="qcurve"/>
			<point x="255" y="-165"/>
			<point x="238" y="-164"/>
			<point x="230" y="-163" type="qcurve"/>
			<point x="256" y="-71" type="line"/>
			<point x="262" y="-72"/>
			<point x="272" y="-72"/>
			<point x="280" y="-72" type="qcurve"/>
			<point x="311" y="-72"/>
			<point x="356" y="-33"/>
			<point x="383" y="26"/>
			<point x="396" y="95"/>
			<point x="396" y="125" type="qcurve"/>
			<point x="396" y="167"/>
			<point x="372" y="200"/>
			<point x="346" y="200" type="qcurve"/>
			<point x="341" y="200"/>
			<point x="334" y="199"/>
			<point x="330" y="198" type="qcurve"/>
			<point x="282" y="0" type="line"/>
			<point x="186" y="0" type="line"/>
			<point x="249" y="263" type="line"/>
			<point x="254" y="284"/>
			<point x="263" y="324"/>
			<point x="263" y="341" type="qcurve"/>
			<point x="263" y="362"/>
			<point x="243" y="388"/>
			<point x="217" y="388" type="qcurve"/>
			<point x="203" y="388"/>
			<point x="181" y="380" type="qcurve"/>
			<point x="89" y="0" type="line"/>
			<point x="-7" y="0" type="line"/>
		</contour>
	</outline>
</glyph>
<glyph name="uni04A9" format="2">
	<unicode hex="04A9"/>
	<advance width="500"/>
	<outline>
		<contour>
			<point x="380" y="235" type="qcurve"/>
			<point x="360" y="235"/>
			<point x="334" y="199"/>
			<point x="317" y="150"/>
			<point x="310" y="96"/>
			<point x="310" y="78" type="qcurve"/>
			<point x="328" y="79"/>
			<point x="365" y="97"/>
			<point x="393" y="128"/>
			<point x="411" y="170"/>
			<point x="411" y="196" type="qcurve"/>
			<point x="411" y="210"/>
			<point x="398" y="235"/>
		</contour>
		<contour>
			<point x="408" y="-139" type="line"/>
			<point x="330" y="-131"/>
			<point x="235" y="-60"/>
			<point x="217" y="-4" type="qcurve"/>
			<point x="141" y="7"/>
			<point x="61" y="99"/>
			<point x="61" y="171" type="qcurve"/>
			<point x="61" y="231"/>
			<point x="99" y="343"/>
			<point x="173" y="430"/>
			<point x="283" y="482"/>
			<point x="355" y="482" type="qcurve"/>
			<point x="390" y="482"/>
			<point x="441" y="475"/>
			<point x="464" y="466" type="qcurve"/>
			<point x="422" y="370" type="line"/>
			<point x="408" y="376"/>
			<point x="375" y="380"/>
			<point x="349" y="380" type="qcurve"/>
			<point x="303" y="380"/>
			<point x="236" y="345"/>
			<point x="192" y="288"/>
			<point x="171" y="213"/>
			<point x="171" y="173" type="qcurve"/>
			<point x="171" y="160"/>
			<point x="173" y="134"/>
			<point x="182" y="111"/>
			<point x="198" y="92"/>
			<point x="213" y="86" type="qcurve"/>
			<point x="217" y="156"/>
			<point x="252" y="247"/>
			<point x="302" y="300"/>
			<point x="363" y="320"/>
			<point x="395" y="320" type="qcurve"/>
			<point x="440" y="320"/>
			<point x="506" y="263"/>
			<point x="506" y="208" type="qcurve"/>
			<point x="506" y="170"/>
			<point x="483" y="100"/>
			<point x="438" y="45"/>
			<point x="370" y="6"/>
			<point x="325" y="-2" type="qcurve"/>
			<point x="331" y="-25"/>
			<point x="395" y="-50"/>
			<point x="438" y="-57" type="qcurve"/>
		</contour>
	</outline>
</glyph>
<glyph name="uni04B0" format="2">
	<unicode hex="04B0"/>
	<advance width="500"/>
	<outline>
		<contour>
			<point x="311" y="340" type="qcurve"/>
			<point x="327" y="363"/>
			<point x="373" y="432"/>
			<point x="421" y="509"/>
			<point x="468" y="587"/>
			<point x="486" y="619" type="qcurve"/>
			<point x="618" y="619" type="line"/>
			<point x="588" y="569"/>
			<point x="528" y="476"/>
			<point x="465" y="385"/>
			<point x="397" y="295"/>
			<point x="357" y="247" type="qcurve"/>
			<point x="480" y="247" type="line"/>
			<point x="461" y="165" type="line"/>
			<point x="333" y="165" type="line"/>
			<point x="294" y="0" type="line"/>
			<point x="171" y="0" type="line"/>
			<point x="210" y="165" type="line"/>
			<point x="87" y="165" type="line"/>
			<point x="106" y="247" type="line"/>
			<point x="225" y="247" type="line"/>
			<point x="195" y="342"/>
			<point x="155" y="519"/>
			<point x="142" y="619" type="qcurve"/>
			<point x="263" y="619" type="line"/>
			<point x="269" y="547"/>
			<point x="296" y="402"/>
		</contour>
	</outline>
</glyph>
<glyph name="uni04B1" format="2">
	<unicode hex="04B1"/>
	<advance width="500"/>
	<outline>
		<contour>
			<point x="126" y="-165" type="line"/>
			<point x="165" y="0" type="line"/>
			<point x="54" y="0" type="line"/>
			<point x="73" y="82" type="line"/>
			<point x="161" y="82" type="line"/>
			<point x="142" y="163"/>
			<point x="111" y="352"/>
			<point x="106" y="470" type="qcurve"/>
			<point x="234" y="470" type="line"/>
			<point x="235" y="434"/>
			<point x="239" y="348"/>
			<point x="246" y="261"/>
			<point x="255" y="175"/>
			<point x="260" y="139" type="qcurve"/>
			<point x="281" y="169"/>
			<point x="329" y="252"/>
			<point x="374" y="343"/>
			<point x="412" y="433"/>
			<point x="423" y="470" type="qcurve"/>
			<point x="555" y="470" type="line"/>
			<point x="535" y="417"/>
			<point x="485" y="312"/>
			<point x="428" y="213"/>
			<point x="368" y="121"/>
			<point x="339" y="82" type="qcurve"/>
			<point x="421" y="82" type="line"/>
			<point x="402" y="0" type="line"/>
			<point x="289" y="0" type="line"/>
			<point x="249" y="-165" type="line"/>
		</contour>
	</outline>
</glyph>
<glyph name="uni04B5" format="2">
	<unicode hex="04B5"/>
	<advance width="500"/>
	<outline>
		<contour>
			<point x="224" y="238" type="line"/>
			<point x="221" y="222"/>
			<point x="211" y="175"/>
			<point x="211" y="152" type="qcurve"/>
			<point x="211" y="126"/>
			<point x="232" y="87"/>
			<point x="263" y="87" type="qcurve"/>
			<point x="288" y="87"/>
			<point x="327" y="110"/>
			<point x="342" y="127" type="qcurve"/>
			<point x="344" y="145"/>
			<point x="347" y="168"/>
			<point x="350" y="179" type="qcurve"/>
			<point x="420" y="470" type="line"/>
			<point x="523" y="470" type="line"/>
			<point x="457" y="195" type="line"/>
			<point x="453" y="178"/>
			<point x="447" y="143"/>
			<point x="447" y="127" type="qcurve"/>
			<point x="447" y="105"/>
			<point x="462" y="72"/>
			<point x="484" y="67" type="qcurve"/>
			<point x="437" y="-129" type="line"/>
			<point x="343" y="-129" type="line"/>
			<point x="378" y="14" type="line"/>
			<point x="374" y="17"/>
			<point x="361" y="38"/>
			<point x="359" y="46" type="qcurve"/>
			<point x="337" y="20"/>
			<point x="263" y="-11"/>
			<point x="229" y="-11" type="qcurve"/>
			<point x="192" y="-11"/>
			<point x="144" y="10"/>
			<point x="115" y="47"/>
			<point x="104" y="95"/>
			<point x="104" y="122" type="qcurve"/>
			<point x="104" y="151"/>
			<point x="113" y="209"/>
			<point x="120" y="238" type="qcurve"/>
			<point x="152" y="373" type="line"/>
			<point x="80" y="373" type="line"/>
			<point x="104" y="470" type="line"/>
			<point x="358" y="470" type="line"/>
			<point x="335" y="373" type="line"/>
			<point x="256" y="373" type="line"/>
		</contour>
	</outline>
</glyph>
<glyph name="uni04B8" format="2">
	<unicode hex="04B8"/>
	<advance width="500"/>
	<outline>
		<contour>
			<point x="290" y="96" type="line"/>
			<point x="221" y="96" type="line"/>
			<point x="249" y="208" type="line"/>
			<point x="183" y="212"/>
			<point x="107" y="285"/>
			<point x="107" y="355" type="qcurve"/>
			<point x="107" y="372"/>
			<point x="112" y="410"/>
			<point x="117" y="430" type="qcurve"/>
			<point x="163" y="619" type="line"/>
			<point x="286" y="619" type="line"/>
			<point x="241" y="433" type="line"/>
			<point x="232" y="397"/>
			<point x="232" y="373" type="qcurve"/>
			<point x="232" y="347"/>
			<point x="253" y="318"/>
			<point x="273" y="312" type="qcurve"/>
			<point x="300" y="422" type="line"/>
			<point x="369" y="422" type="line"/>
			<point x="341" y="308" type="line"/>
			<point x="354" y="309"/>
			<point x="382" y="312"/>
			<point x="395" y="314" type="qcurve"/>
			<point x="468" y="619" type="line"/>
			<point x="591" y="619" type="line"/>
			<point x="442" y="0" type="line"/>
			<point x="319" y="0" type="line"/>
			<point x="371" y="214" type="line"/>
			<point x="357" y="212"/>
			<point x="332" y="210"/>
			<point x="318" y="208" type="qcurve"/>
		</contour>
	</outline>
</glyph>
<glyph name="uni04C3" format="2">
	<unicode hex="04C3"/>
	<advance width="500"/>
	<outline>
		<contour>
			<point x="154" y="0" type="line"/>
			<point x="31" y="0" type="line"/>
			<point x="179" y="619" type="line"/>
			<point x="303" y="619" type="line"/>
			<point x="246" y="381" type="line"/>
			<point x="309" y="439"/>
			<point x="437" y="562"/>
			<point x="490" y="619" type="qcurve"/>
			<point x="630" y="619" type="line"/>
			<point x="611" y="598"/>
			<point x="549" y="535"/>
			<point x="473" y="463"/>
			<point x="388" y="386"/>
			<point x="345" y="350" type="qcurve"/>
			<point x="382" y="348"/>
			<point x="440" y="317"/>
			<point x="479" y="267"/>
			<point x="500" y="202"/>
			<point x="500" y="166" type="qcurve"/>
			<point x="500" y="93"/>
			<point x="455" y="-29"/>
			<point x="373" y="-118"/>
			<point x="258" y="-167"/>
			<point x="188" y="-167" type="qcurve"/>
			<point x="176" y="-167"/>
			<point x="151" y="-165"/>
			<point x="138" y="-163" type="qcurve"/>
			<point x="167" y="-62" type="line"/>
			<point x="174" y="-63"/>
			<point x="187" y="-63"/>
			<point x="193" y="-63" type="qcurve"/>
			<point x="236" y="-63"/>
			<point x="305" y="-29"/>
			<point x="354" y="28"/>
			<point x="380" y="105"/>
			<point x="380" y="147" type="qcurve"/>
			<point x="380" y="193"/>
			<point x="328" y="258"/>
			<point x="270" y="258" type="qcurve"/>
			<point x="257" y="258"/>
			<point x="230" y="256"/>
			<point x="215" y="254" type="qcurve"/>
		</contour>
	</outline>
</glyph>
<glyph name="uni04C4" format="2">
	<unicode hex="04C4"/>
	<advance width="500"/>
	<outline>
		<contour>
			<point x="240" y="302" type="line"/>
			<point x="264" y="321"/>
			<point x="313" y="365"/>
			<point x="361" y="409"/>
			<point x="405" y="451"/>
			<point x="423" y="470" type="qcurve"/>
			<point x="572" y="470" type="line"/>
			<point x="551" y="450"/>
			<point x="497" y="400"/>
			<point x="437" y="349"/>
			<point x="374" y="299"/>
			<point x="346" y="278" type="qcurve"/>
			<point x="373" y="273"/>
			<point x="420" y="253"/>
			<point x="455" y="217"/>
			<point x="476" y="165"/>
			<point x="476" y="128" type="qcurve"/>
			<point x="476" y="66"/>
			<point x="439" y="-41"/>
			<point x="367" y="-121"/>
			<point x="262" y="-167"/>
			<point x="194" y="-167" type="qcurve"/>
			<point x="182" y="-167"/>
			<point x="156" y="-165"/>
			<point x="142" y="-163" type="qcurve"/>
			<point x="171" y="-62" type="line"/>
			<point x="178" y="-63"/>
			<point x="191" y="-64"/>
			<point x="199" y="-64" type="qcurve"/>
			<point x="232" y="-64"/>
			<point x="290" y="-39"/>
			<point x="332" y="5"/>
			<point x="356" y="64"/>
			<point x="356" y="98" type="qcurve"/>
			<point x="356" y="125"/>
			<point x="337" y="161"/>
			<point x="305" y="182"/>
			<point x="264" y="191"/>
			<point x="242" y="191" type="qcurve"/>
			<point x="234" y="191"/>
			<point x="220" y="190"/>
			<point x="213" y="189" type="qcurve"/>
			<point x="168" y="0" type="line"/>
			<point x="45" y="0" type="line"/>
			<point x="156" y="470" type="line"/>
			<point x="280" y="470" type="line"/>
		</contour>
	</outline>
</glyph>
<glyph name="uni04C5" format="2">
	<unicode hex="04C5"/>
	<advance width="500"/>
	<outline>
		<contour>
			<point x="442" y="118" type="line"/>
			<point x="562" y="619" type="line"/>
			<point x="265" y="619" type="line"/>
			<point x="240" y="513" type="line" smooth="yes"/>
			<point x="191" y="306"/>
			<point x="148" y="119"/>
			<point x="8" y="93" type="curve"/>
			<point x="18" y="-12" type="line"/>
			<point x="230" y="3"/>
			<point x="286" y="263"/>
			<point x="349" y="517" type="curve"/>
			<point x="417" y="517" type="line"/>
			<point x="293" y="0" type="line"/>
			<point x="351" y="0" type="line"/>
			<point x="330" y="-50"/>
			<point x="289" y="-89"/>
			<point x="262" y="-114" type="curve"/>
			<point x="320" y="-163" type="line"/>
			<point x="428" y="-81"/>
			<point x="474" y="4"/>
			<point x="493" y="118" type="curve"/>
		</contour>
	</outline>
</glyph>
<glyph name="uni04C6" format="2">
	<unicode hex="04C6"/>
	<advance width="500"/>
	<outline>
		<contour>
			<point x="300" y="0" type="line"/>
			<point x="359" y="0" type="line"/>
			<point x="341" y="-35"/>
			<point x="316" y="-59"/>
			<point x="289" y="-85" type="curve"/>
			<point x="351" y="-137" type="line"/>
			<point x="458" y="-37"/>
			<point x="482" y="9"/>
			<point x="501" y="118" type="curve"/>
			<point x="450" y="118" type="line"/>
			<point x="535" y="470" type="line"/>
			<point x="215" y="470" type="line"/>
			<point x="202" y="416" type="line" smooth="yes"/>
			<point x="182" y="333"/>
			<point x="154" y="220"/>
			<point x="108" y="157" type="curve" smooth="yes"/>
			<point x="87" y="129"/>
			<point x="69" y="103"/>
			<point x="12" y="93" type="curve"/>
			<point x="18" y="-12" type="line"/>
			<point x="204" y="-3"/>
			<point x="254" y="196"/>
			<point x="301" y="368" type="curve"/>
			<point x="388" y="368" type="line"/>
		</contour>
	</outline>
</glyph>
<glyph name="uni04CD" format="2">
	<unicode hex="04CD"/>
	<advance width="500"/>
	<outline>
		<contour>
			<point x="558" y="619" type="line"/>
			<point x="542" y="495"/>
			<point x="496" y="247"/>
			<point x="468" y="118" type="qcurve"/>
			<point x="490" y="118" type="line"/>
			<point x="483" y="75"/>
			<point x="458" y="0"/>
			<point x="417" y="-69"/>
			<point x="357" y="-132"/>
			<point x="317" y="-163" type="qcurve"/>
			<point x="259" y="-114" type="line"/>
			<point x="280" y="-95"/>
			<point x="333" y="-38"/>
			<point x="348" y="0" type="qcurve"/>
			<point x="330" y="0" type="line"/>
			<point x="453" y="486" type="line"/>
			<point x="315" y="219" type="line"/>
			<point x="229" y="219" type="line"/>
			<point x="226" y="285"/>
			<point x="234" y="421"/>
			<point x="230" y="481" type="qcurve"/>
			<point x="119" y="0" type="line"/>
			<point x="6" y="0" type="line"/>
			<point x="27" y="76"/>
			<point x="72" y="240"/>
			<point x="118" y="403"/>
			<point x="163" y="555"/>
			<point x="185" y="619" type="qcurve"/>
			<point x="291" y="619" type="line"/>
			<point x="293" y="598"/>
			<point x="294" y="529"/>
			<point x="294" y="450"/>
			<point x="294" y="366"/>
			<point x="296" y="330" type="qcurve"/>
			<point x="445" y="619" type="line"/>
		</contour>
	</outline>
</glyph>
<glyph name="uni04E0" format="2">
	<unicode hex="04E0"/>
	<advance width="500"/>
	<outline>
		<contour>
			<point x="232" y="353" type="line"/>
			<point x="250" y="369"/>
			<point x="297" y="412"/>
			<point x="344" y="457"/>
			<point x="388" y="500"/>
			<point x="405" y="517" type="qcurve"/>
			<point x="168" y="517" type="line"/>
			<point x="192" y="619" type="line"/>
			<point x="572" y="619" type="line"/>
			<point x="553" y="542" type="line"/>
			<point x="539" y="528"/>
			<point x="497" y="485"/>
			<point x="445" y="435"/>
			<point x="389" y="382"/>
			<point x="362" y="358" type="qcurve"/>
			<point x="390" y="352"/>
			<point x="437" y="332"/>
			<point x="470" y="298"/>
			<point x="488" y="247"/>
			<point x="488" y="211" type="qcurve"/>
			<point x="488" y="155"/>
			<point x="447" y="70"/>
			<point x="376" y="13"/>
			<point x="280" y="-16"/>
			<point x="225" y="-16" type="qcurve"/>
			<point x="161" y="-16"/>
			<point x="61" y="15"/>
			<point x="29" y="35" type="qcurve"/>
			<point x="87" y="131" type="line"/>
			<point x="98" y="124"/>
			<point x="133" y="109"/>
			<point x="173" y="97"/>
			<point x="214" y="89"/>
			<point x="232" y="89" type="qcurve"/>
			<point x="287" y="89"/>
			<point x="362" y="149"/>
			<point x="362" y="206" type="qcurve"/>
			<point x="362" y="286"/>
			<point x="255" y="286" type="qcurve"/>
			<point x="216" y="286" type="line"/>
		</contour>
	</outline>
</glyph>
<glyph name="uni1FBE" format="2">
	<unicode hex="1FBE"/>
	<advance width="500"/>
	<outline>
		<contour>
			<point x="274" y="-45" type="line"/>
			<point x="272" y="-50"/>
			<point x="269" y="-66"/>
			<point x="269" y="-69" type="qcurve"/>
			<point x="269" y="-92"/>
			<point x="299" y="-104"/>
			<point x="322" y="-104" type="qcurve"/>
			<point x="333" y="-104" type="line"/>
			<point x="319" y="-163" type="line"/>
			<point x="312" y="-165"/>
			<point x="276" y="-170"/>
			<point x="262" y="-170" type="qcurve"/>
			<point x="215" y="-170"/>
			<point x="165" y="-138"/>
			<point x="165" y="-103" type="qcurve"/>
			<point x="165" y="-87"/>
			<point x="173" y="-59"/>
			<point x="179" y="-45" type="qcurve"/>
		</contour>
	</outline>
</glyph>
<glyph name="uni1FC1" format="2">
	<unicode hex="1FC1"/>
	<advance width="500"/>
	<outline>
		<contour>
			<point x="538" y="597" type="qcurve"/>
			<point x="538" y="571"/>
			<point x="503" y="530"/>
			<point x="472" y="530" type="qcurve"/>
			<point x="448" y="530"/>
			<point x="417" y="559"/>
			<point x="417" y="583" type="qcurve"/>
			<point x="417" y="615"/>
			<point x="458" y="650"/>
			<point x="484" y="650" type="qcurve"/>
			<point x="506" y="650"/>
			<point x="538" y="622"/>
		</contour>
		<contour>
			<point x="345" y="597" type="qcurve"/>
			<point x="345" y="571"/>
			<point x="311" y="530"/>
			<point x="279" y="530" type="qcurve"/>
			<point x="255" y="530"/>
			<point x="224" y="559"/>
			<point x="224" y="583" type="qcurve"/>
			<point x="224" y="615"/>
			<point x="265" y="650"/>
			<point x="291" y="650" type="qcurve"/>
			<point x="314" y="650"/>
			<point x="345" y="622"/>
		</contour>
		<contour>
			<point x="469" y="682" type="line"/>
			<point x="470" y="685"/>
			<point x="470" y="696" type="qcurve"/>
			<point x="470" y="719"/>
			<point x="438" y="747"/>
			<point x="411" y="747" type="qcurve"/>
			<point x="385" y="747"/>
			<point x="336" y="720"/>
			<point x="326" y="682" type="qcurve"/>
			<point x="257" y="682" type="line"/>
			<point x="259" y="717"/>
			<point x="288" y="770"/>
			<point x="333" y="805"/>
			<point x="388" y="823"/>
			<point x="416" y="823" type="qcurve"/>
			<point x="440" y="823"/>
			<point x="484" y="809"/>
			<point x="519" y="780"/>
			<point x="539" y="737"/>
			<point x="539" y="707" type="qcurve"/>
			<point x="539" y="701"/>
			<point x="538" y="688"/>
			<point x="538" y="682" type="qcurve"/>
		</contour>
	</outline>
</glyph>
<glyph name="emdash" format="2">
	<unicode hex="2014"/>
	<advance width="500"/>
	<outline>
		<contour>
			<point x="34" y="221" type="line"/>
			<point x="534" y="221" type="line"/>
			<point x="556" y="313" type="line"/>
			<point x="56" y="313" type="line"/>
		</contour>
	</outline>
	<guideline x="499" y="0" angle="103.5"/>
</glyph>
<glyph name="quotedblbase" format="2">
	<unicode hex="201E"/>
	<advance width="500"/>
	<outline>
		<contour>
			<point x="240" y="-77" type="line"/>
			<point x="258" y="-76"/>
			<point x="295" y="-67"/>
			<point x="326" y="-54"/>
			<point x="348" y="-34"/>
			<point x="353" y="-22" type="qcurve"/>
			<point x="327" y="-19"/>
			<point x="296" y="17"/>
			<point x="296" y="44" type="qcurve"/>
			<point x="296" y="81"/>
			<point x="345" y="131"/>
			<point x="381" y="131" type="qcurve"/>
			<point x="416" y="131"/>
			<point x="449" y="82"/>
			<point x="449" y="46" type="qcurve"/>
			<point x="449" y="12"/>
			<point x="425" y="-52"/>
			<point x="376" y="-105"/>
			<point x="299" y="-139"/>
			<point x="247" y="-143" type="qcurve"/>
		</contour>
		<contour>
			<point x="7" y="-77" type="line"/>
			<point x="25" y="-76"/>
			<point x="61" y="-67"/>
			<point x="92" y="-54"/>
			<point x="115" y="-34"/>
			<point x="119" y="-22" type="qcurve"/>
			<point x="93" y="-19"/>
			<point x="63" y="17"/>
			<point x="63" y="44" type="qcurve"/>
			<point x="63" y="81"/>
			<point x="112" y="131"/>
			<point x="148" y="131" type="qcurve"/>
			<point x="183" y="131"/>
			<point x="215" y="82"/>
			<point x="215" y="46" type="qcurve"/>
			<point x="215" y="12"/>
			<point x="192" y="-52"/>
			<point x="142" y="-105"/>
			<point x="66" y="-139"/>
			<point x="14" y="-143" type="qcurve"/>
		</contour>
	</outline>
	<guideline y="-143"/>
</glyph>
<glyph name="perthousand" format="2">
	<unicode hex="2030"/>
	<advance width="500"/>
	<outline>
		<contour>
			<point x="67" y="229" type="line"/>
			<point x="54" y="272" type="line"/>
			<point x="570" y="501" type="line"/>
			<point x="583" y="456" type="line"/>
		</contour>
		<contour>
			<point x="185" y="426" type="qcurve"/>
			<point x="198" y="426"/>
			<point x="218" y="452"/>
			<point x="231" y="486"/>
			<point x="237" y="522"/>
			<point x="237" y="533" type="qcurve"/>
			<point x="237" y="553"/>
			<point x="223" y="565"/>
			<point x="215" y="565" type="qcurve"/>
			<point x="202" y="565"/>
			<point x="182" y="540"/>
			<point x="169" y="505"/>
			<point x="163" y="469"/>
			<point x="163" y="458" type="qcurve"/>
			<point x="163" y="438"/>
			<point x="177" y="426"/>
		</contour>
		<contour>
			<point x="172" y="358" type="qcurve"/>
			<point x="138" y="358"/>
			<point x="96" y="407"/>
			<point x="96" y="447" type="qcurve"/>
			<point x="96" y="474"/>
			<point x="110" y="539"/>
			<point x="141" y="595"/>
			<point x="191" y="633"/>
			<point x="228" y="633" type="qcurve"/>
			<point x="261" y="633"/>
			<point x="305" y="584"/>
			<point x="305" y="545" type="qcurve"/>
			<point x="305" y="518"/>
			<point x="291" y="452"/>
			<point x="259" y="396"/>
			<point x="209" y="358"/>
		</contour>
		<contour>
			<point x="175" y="54" type="qcurve"/>
			<point x="188" y="54"/>
			<point x="208" y="80"/>
			<point x="221" y="115"/>
			<point x="227" y="151"/>
			<point x="227" y="162" type="qcurve"/>
			<point x="227" y="182"/>
			<point x="213" y="194"/>
			<point x="205" y="194" type="qcurve"/>
			<point x="192" y="194"/>
			<point x="173" y="168"/>
			<point x="160" y="134"/>
			<point x="154" y="97"/>
			<point x="154" y="87" type="qcurve"/>
			<point x="154" y="67"/>
			<point x="167" y="54"/>
		</contour>
		<contour>
			<point x="163" y="-13" type="qcurve"/>
			<point x="128" y="-13"/>
			<point x="86" y="35"/>
			<point x="86" y="75" type="qcurve"/>
			<point x="86" y="102"/>
			<point x="100" y="168"/>
			<point x="131" y="224"/>
			<point x="182" y="262"/>
			<point x="218" y="262" type="qcurve"/>
			<point x="252" y="262"/>
			<point x="295" y="213"/>
			<point x="295" y="173" type="qcurve"/>
			<point x="295" y="146"/>
			<point x="281" y="81"/>
			<point x="250" y="25"/>
			<point x="199" y="-13"/>
		</contour>
		<contour>
			<point x="401" y="54" type="qcurve"/>
			<point x="414" y="54"/>
			<point x="434" y="80"/>
			<point x="447" y="115"/>
			<point x="453" y="151"/>
			<point x="453" y="162" type="qcurve"/>
			<point x="453" y="182"/>
			<point x="439" y="194"/>
			<point x="431" y="194" type="qcurve"/>
			<point x="418" y="194"/>
			<point x="399" y="168"/>
			<point x="386" y="134"/>
			<point x="380" y="97"/>
			<point x="380" y="87" type="qcurve"/>
			<point x="380" y="67"/>
			<point x="393" y="54"/>
		</contour>
		<contour>
			<point x="388" y="-13" type="qcurve"/>
			<point x="354" y="-13"/>
			<point x="312" y="35"/>
			<point x="312" y="75" type="qcurve"/>
			<point x="312" y="102"/>
			<point x="326" y="168"/>
			<point x="357" y="224"/>
			<point x="407" y="262"/>
			<point x="444" y="262" type="qcurve"/>
			<point x="477" y="262"/>
			<point x="521" y="213"/>
			<point x="521" y="173" type="qcurve"/>
			<point x="521" y="146"/>
			<point x="507" y="81"/>
			<point x="475" y="25"/>
			<point x="425" y="-13"/>
		</contour>
	</outline>
</glyph>
<glyph name="fivesuperior" format="2">
	<unicode hex="2075"/>
	<advance width="500"/>
	<outline>
		<contour>
			<point x="328" y="498" type="qcurve"/>
			<point x="368" y="492"/>
			<point x="418" y="472"/>
			<point x="445" y="445"/>
			<point x="454" y="412"/>
			<point x="454" y="391" type="qcurve"/>
			<point x="454" y="368"/>
			<point x="434" y="322"/>
			<point x="392" y="286"/>
			<point x="326" y="263"/>
			<point x="280" y="263" type="qcurve"/>
			<point x="254" y="263"/>
			<point x="192" y="278"/>
			<point x="166" y="292" type="qcurve"/>
			<point x="203" y="367" type="line"/>
			<point x="249" y="346"/>
			<point x="296" y="346" type="qcurve"/>
			<point x="322" y="346"/>
			<point x="359" y="366"/>
			<point x="359" y="391" type="qcurve"/>
			<point x="359" y="414"/>
			<point x="296" y="431"/>
			<point x="223" y="434" type="qcurve"/>
			<point x="232" y="457"/>
			<point x="251" y="512"/>
			<point x="269" y="564"/>
			<point x="283" y="611"/>
			<point x="288" y="626" type="qcurve"/>
			<point x="499" y="626" type="line"/>
			<point x="480" y="545" type="line"/>
			<point x="344" y="545" type="line"/>
			<point x="340" y="536"/>
			<point x="333" y="509"/>
		</contour>
	</outline>
</glyph>
<glyph name="eightsuperior" format="2">
	<unicode hex="2078"/>
	<advance width="500"/>
	<outline>
		<contour>
			<point x="495" y="551" type="qcurve"/>
			<point x="495" y="521"/>
			<point x="460" y="468"/>
			<point x="423" y="451" type="qcurve"/>
			<point x="447" y="437"/>
			<point x="464" y="402"/>
			<point x="464" y="382" type="qcurve"/>
			<point x="464" y="352"/>
			<point x="436" y="307"/>
			<point x="391" y="277"/>
			<point x="334" y="262"/>
			<point x="306" y="262" type="qcurve"/>
			<point x="281" y="262"/>
			<point x="235" y="273"/>
			<point x="200" y="294"/>
			<point x="179" y="327"/>
			<point x="179" y="350" type="qcurve"/>
			<point x="179" y="382"/>
			<point x="218" y="438"/>
			<point x="262" y="456" type="qcurve"/>
			<point x="241" y="470"/>
			<point x="227" y="503"/>
			<point x="227" y="521" type="qcurve"/>
			<point x="227" y="549"/>
			<point x="254" y="591"/>
			<point x="296" y="619"/>
			<point x="350" y="633"/>
			<point x="377" y="633" type="qcurve"/>
			<point x="400" y="633"/>
			<point x="442" y="623"/>
			<point x="475" y="602"/>
			<point x="495" y="571"/>
		</contour>
		<contour>
			<point x="315" y="425" type="line"/>
			<point x="292" y="415"/>
			<point x="264" y="380"/>
			<point x="264" y="364" type="qcurve"/>
			<point x="264" y="350"/>
			<point x="287" y="332"/>
			<point x="313" y="332" type="qcurve"/>
			<point x="342" y="332"/>
			<point x="377" y="360"/>
			<point x="377" y="378" type="qcurve"/>
			<point x="377" y="405"/>
			<point x="332" y="420" type="qcurve"/>
		</contour>
		<contour>
			<point x="310" y="525" type="qcurve"/>
			<point x="310" y="498"/>
			<point x="358" y="480" type="qcurve"/>
			<point x="363" y="478" type="line"/>
			<point x="384" y="488"/>
			<point x="411" y="520"/>
			<point x="411" y="536" type="qcurve"/>
			<point x="411" y="549"/>
			<point x="390" y="565"/>
			<point x="367" y="565" type="qcurve"/>
			<point x="341" y="565"/>
			<point x="310" y="542"/>
		</contour>
	</outline>
</glyph>
<glyph name="Euro" format="2">
	<unicode hex="20AC"/>
	<advance width="500"/>
	<outline>
		<contour>
			<point x="258" y="198" type="line"/>
			<point x="263" y="136"/>
			<point x="322" y="91"/>
			<point x="368" y="91" type="qcurve"/>
			<point x="394" y="91"/>
			<point x="457" y="102"/>
			<point x="484" y="112" type="qcurve"/>
			<point x="489" y="14" type="line"/>
			<point x="457" y="1"/>
			<point x="379" y="-13"/>
			<point x="344" y="-13" type="qcurve"/>
			<point x="303" y="-13"/>
			<point x="229" y="10"/>
			<point x="173" y="60"/>
			<point x="139" y="141"/>
			<point x="138" y="198" type="qcurve"/>
			<point x="63" y="198" type="line"/>
			<point x="83" y="280" type="line"/>
			<point x="141" y="280" type="line"/>
			<point x="143" y="299"/>
			<point x="150" y="331"/>
			<point x="154" y="347" type="qcurve"/>
			<point x="97" y="347" type="line"/>
			<point x="117" y="429" type="line"/>
			<point x="179" y="429" type="line"/>
			<point x="199" y="475"/>
			<point x="253" y="551"/>
			<point x="327" y="604"/>
			<point x="424" y="633"/>
			<point x="488" y="633" type="qcurve"/>
			<point x="545" y="633"/>
			<point x="605" y="613" type="qcurve"/>
			<point x="561" y="516" type="line"/>
			<point x="541" y="524"/>
			<point x="492" y="531"/>
			<point x="472" y="531" type="qcurve"/>
			<point x="407" y="531"/>
			<point x="328" y="477"/>
			<point x="301" y="429" type="qcurve"/>
			<point x="513" y="429" type="line"/>
			<point x="480" y="347" type="line"/>
			<point x="274" y="347" type="line"/>
			<point x="269" y="333"/>
			<point x="263" y="298"/>
			<point x="261" y="280" type="qcurve"/>
			<point x="451" y="280" type="line"/>
			<point x="417" y="198" type="line"/>
		</contour>
	</outline>
	<guideline y="629"/>
</glyph>
<glyph name="afii61352" format="2">
	<unicode hex="2116"/>
	<advance width="500"/>
	<outline>
		<contour>
			<point x="183" y="0" type="line"/>
			<point x="170" y="357" type="line"/>
			<point x="84" y="0" type="line"/>
			<point x="3" y="0" type="line"/>
			<point x="151" y="619" type="line"/>
			<point x="217" y="619" type="line"/>
			<point x="227" y="537"/>
			<point x="232" y="374"/>
			<point x="238" y="292" type="qcurve"/>
			<point x="316" y="619" type="line"/>
			<point x="398" y="619" type="line"/>
			<point x="249" y="0" type="line"/>
		</contour>
		<contour>
			<point x="334" y="240" type="line"/>
			<point x="533" y="240" type="line"/>
			<point x="510" y="142" type="line"/>
			<point x="311" y="142" type="line"/>
		</contour>
		<contour>
			<point x="391" y="478" type="qcurve"/>
			<point x="409" y="554"/>
			<point x="477" y="633"/>
			<point x="528" y="633" type="qcurve"/>
			<point x="600" y="633"/>
			<point x="600" y="551" type="qcurve"/>
			<point x="600" y="518"/>
			<point x="590" y="478" type="qcurve"/>
			<point x="572" y="402"/>
			<point x="504" y="322"/>
			<point x="453" y="322" type="qcurve"/>
			<point x="381" y="322"/>
			<point x="381" y="405" type="qcurve"/>
			<point x="381" y="438"/>
		</contour>
		<contour>
			<point x="519" y="478" type="qcurve"/>
			<point x="524" y="496"/>
			<point x="527" y="523"/>
			<point x="527" y="533" type="qcurve"/>
			<point x="527" y="550"/>
			<point x="518" y="563"/>
			<point x="511" y="563" type="qcurve"/>
			<point x="499" y="563"/>
			<point x="474" y="526"/>
			<point x="463" y="478" type="qcurve"/>
			<point x="454" y="439"/>
			<point x="454" y="420" type="qcurve"/>
			<point x="454" y="392"/>
			<point x="470" y="392" type="qcurve"/>
			<point x="481" y="392"/>
			<point x="508" y="429"/>
		</contour>
	</outline>
</glyph>
<glyph name="fourfifths" format="2">
	<unicode hex="2158"/>
	<advance width="500"/>
	<outline>
		<contour>
			<point x="328" y="626" type="line"/>
			<point x="291" y="475" type="line"/>
			<point x="328" y="475" type="line"/>
			<point x="313" y="415" type="line"/>
			<point x="278" y="415" type="line"/>
			<point x="268" y="376" type="line"/>
			<point x="196" y="376" type="line"/>
			<point x="205" y="415" type="line"/>
			<point x="78" y="415" type="line"/>
			<point x="89" y="464" type="line"/>
			<point x="107" y="487"/>
			<point x="138" y="526"/>
			<point x="170" y="564"/>
			<point x="206" y="603"/>
			<point x="228" y="626" type="qcurve"/>
		</contour>
		<contour>
			<point x="242" y="564" type="line"/>
			<point x="222" y="544"/>
			<point x="183" y="495"/>
			<point x="167" y="475" type="qcurve"/>
			<point x="220" y="475" type="line"/>
		</contour>
		<contour>
			<point x="404" y="163" type="line"/>
			<point x="451" y="158"/>
			<point x="487" y="120"/>
			<point x="487" y="95" type="qcurve"/>
			<point x="487" y="67"/>
			<point x="465" y="28"/>
			<point x="428" y="3"/>
			<point x="380" y="-8"/>
			<point x="355" y="-8" type="qcurve"/>
			<point x="292" y="-8"/>
			<point x="263" y="16" type="qcurve"/>
			<point x="292" y="74" type="line"/>
			<point x="305" y="66"/>
			<point x="338" y="54"/>
			<point x="358" y="54" type="qcurve"/>
			<point x="379" y="54"/>
			<point x="407" y="68"/>
			<point x="407" y="82" type="qcurve"/>
			<point x="407" y="93"/>
			<point x="377" y="110"/>
			<point x="330" y="110" type="qcurve"/>
			<point x="312" y="110" type="line"/>
			<point x="320" y="133"/>
			<point x="331" y="167"/>
			<point x="341" y="197"/>
			<point x="351" y="229"/>
			<point x="357" y="250" type="qcurve"/>
			<point x="518" y="250" type="line"/>
			<point x="503" y="190" type="line"/>
			<point x="413" y="190" type="line"/>
		</contour>
		<contour>
			<point x="596" y="619" type="line"/>
			<point x="131" y="0" type="line"/>
			<point x="35" y="0" type="line"/>
			<point x="499" y="619" type="line"/>
		</contour>
	</outline>
</glyph>
<glyph name="product" format="2">
	<unicode hex="220F"/>
	<advance width="500"/>
	<outline>
		<contour>
			<point x="585" y="619" type="line"/>
			<point x="413" y="-97" type="line"/>
			<point x="289" y="-97" type="line"/>
			<point x="438" y="517" type="line"/>
			<point x="273" y="517" type="line"/>
			<point x="126" y="-97" type="line"/>
			<point x="3" y="-97" type="line"/>
			<point x="174" y="619" type="line"/>
		</contour>
	</outline>
	<guideline x="313" y="0" angle="103.5"/>
	<guideline x="437" y="0" angle="103.5"/>
</glyph>
<glyph name="infinity" format="2">
	<unicode hex="221E"/>
	<advance width="500"/>
	<outline>
		<contour>
			<point x="246" y="275" type="line"/>
			<point x="238" y="296"/>
			<point x="217" y="313"/>
			<point x="204" y="313" type="qcurve"/>
			<point x="181" y="313"/>
			<point x="148" y="275"/>
			<point x="148" y="249" type="qcurve"/>
			<point x="148" y="235"/>
			<point x="164" y="212"/>
			<point x="180" y="212" type="qcurve"/>
			<point x="210" y="212"/>
			<point x="245" y="254" type="qcurve"/>
			<point x="252" y="263" type="line"/>
		</contour>
		<contour>
			<point x="346" y="250" type="line"/>
			<point x="354" y="229"/>
			<point x="375" y="212"/>
			<point x="389" y="212" type="qcurve"/>
			<point x="412" y="212"/>
			<point x="445" y="250"/>
			<point x="445" y="276" type="qcurve"/>
			<point x="445" y="290"/>
			<point x="429" y="313"/>
			<point x="413" y="313" type="qcurve"/>
			<point x="383" y="313"/>
			<point x="348" y="271" type="qcurve"/>
			<point x="341" y="263" type="line"/>
		</contour>
		<contour>
			<point x="59" y="233" type="qcurve"/>
			<point x="59" y="266"/>
			<point x="80" y="328"/>
			<point x="121" y="376"/>
			<point x="178" y="405"/>
			<point x="214" y="405" type="qcurve"/>
			<point x="251" y="405"/>
			<point x="296" y="363"/>
			<point x="307" y="338" type="qcurve"/>
			<point x="336" y="367"/>
			<point x="398" y="405"/>
			<point x="434" y="405" type="qcurve"/>
			<point x="452" y="405"/>
			<point x="488" y="393"/>
			<point x="517" y="366"/>
			<point x="534" y="323"/>
			<point x="534" y="292" type="qcurve"/>
			<point x="534" y="259"/>
			<point x="513" y="197"/>
			<point x="472" y="149"/>
			<point x="415" y="120"/>
			<point x="379" y="120" type="qcurve"/>
			<point x="342" y="120"/>
			<point x="297" y="162"/>
			<point x="286" y="187" type="qcurve"/>
			<point x="257" y="158"/>
			<point x="195" y="120"/>
			<point x="159" y="120" type="qcurve"/>
			<point x="141" y="120"/>
			<point x="105" y="132"/>
			<point x="76" y="159"/>
			<point x="59" y="202"/>
		</contour>
	</outline>
	<guideline x="94"/>
	<guideline x="533"/>
</glyph>
<glyph name="lozenge" format="2">
	<unicode hex="25CA"/>
	<advance width="500"/>
	<outline>
		<contour>
			<point x="89" y="318" type="qcurve"/>
			<point x="132" y="367"/>
			<point x="207" y="451"/>
			<point x="277" y="527"/>
			<point x="344" y="599"/>
			<point x="379" y="635" type="qcurve"/>
			<point x="414" y="562"/>
			<point x="481" y="401"/>
			<point x="521" y="302" type="qcurve"/>
			<point x="478" y="253"/>
			<point x="403" y="169"/>
			<point x="333" y="93"/>
			<point x="266" y="21"/>
			<point x="231" y="-15" type="qcurve"/>
			<point x="196" y="58"/>
			<point x="127" y="219"/>
		</contour>
		<contour>
			<point x="397" y="317" type="qcurve"/>
			<point x="382" y="355"/>
			<point x="359" y="412"/>
			<point x="344" y="444" type="qcurve"/>
			<point x="315" y="412"/>
			<point x="246" y="339"/>
			<point x="214" y="299" type="qcurve"/>
			<point x="228" y="259"/>
			<point x="251" y="203"/>
			<point x="266" y="171" type="qcurve"/>
			<point x="295" y="203"/>
			<point x="365" y="276"/>
		</contour>
	</outline>
</glyph>
<glyph name="fl" format="2">
	<unicode hex="F002"/>
	<advance width="500"/>
	<outline>
		<contour>
			<point x="488" y="-9" type="line"/>
			<point x="413" y="0"/>
			<point x="355" y="66"/>
			<point x="355" y="117" type="qcurve"/>
			<point x="355" y="151"/>
			<point x="366" y="197" type="qcurve"/>
			<point x="480" y="672" type="line"/>
			<point x="600" y="693" type="line"/>
			<point x="476" y="179" type="line"/>
			<point x="471" y="159"/>
			<point x="471" y="145" type="qcurve"/>
			<point x="471" y="128"/>
			<point x="489" y="105"/>
			<point x="514" y="101" type="qcurve"/>
		</contour>
		<contour>
			<point x="174" y="49" type="line"/>
			<point x="153" y="-54"/>
			<point x="63" y="-168"/>
			<point x="-17" y="-168" type="qcurve"/>
			<point x="-45" y="-168"/>
			<point x="-90" y="-157"/>
			<point x="-107" y="-148" type="qcurve"/>
			<point x="-77" y="-50" type="line"/>
			<point x="-66" y="-55"/>
			<point x="-40" y="-63"/>
			<point x="-23" y="-63" type="qcurve"/>
			<point x="-5" y="-63"/>
			<point x="21" y="-49"/>
			<point x="38" y="-25"/>
			<point x="48" y="6"/>
			<point x="52" y="24" type="qcurve"/>
			<point x="123" y="368" type="line"/>
			<point x="65" y="368" type="line"/>
			<point x="90" y="470" type="line"/>
			<point x="144" y="470" type="line"/>
			<point x="156" y="522" type="line"/>
			<point x="168" y="574"/>
			<point x="209" y="640"/>
			<point x="259" y="678"/>
			<point x="316" y="693"/>
			<point x="346" y="693" type="qcurve"/>
			<point x="371" y="693"/>
			<point x="408" y="688"/>
			<point x="430" y="680" type="qcurve"/>
			<point x="386" y="579" type="line"/>
			<point x="372" y="584"/>
			<point x="354" y="588"/>
			<point x="343" y="588" type="qcurve"/>
			<point x="305" y="588"/>
			<point x="272" y="540"/>
			<point x="263" y="497" type="qcurve"/>
			<point x="258" y="470" type="line"/>
			<point x="368" y="470" type="line"/>
			<point x="343" y="368" type="line"/>
			<point x="238" y="368" type="line"/>
		</contour>
	</outline>
	<guideline y="-8"/>
</glyph>
<glyph name="twosevenths" format="2">
	<unicode hex="F507"/>
	<advance width="500"/>
	<outline>
		<contour>
			<point x="296" y="436" type="line"/>
			<point x="281" y="374" type="line"/>
			<point x="80" y="374" type="line"/>
			<point x="83" y="421"/>
			<point x="126" y="470"/>
			<point x="165" y="490" type="qcurve"/>
			<point x="202" y="509"/>
			<point x="236" y="531"/>
			<point x="236" y="545" type="qcurve"/>
			<point x="236" y="554"/>
			<point x="223" y="563"/>
			<point x="212" y="563" type="qcurve"/>
			<point x="195" y="563"/>
			<point x="162" y="547"/>
			<point x="146" y="534" type="qcurve"/>
			<point x="119" y="586" type="line"/>
			<point x="139" y="607"/>
			<point x="199" y="633"/>
			<point x="231" y="633" type="qcurve"/>
			<point x="274" y="633"/>
			<point x="313" y="594"/>
			<point x="313" y="562" type="qcurve"/>
			<point x="313" y="541"/>
			<point x="300" y="511"/>
			<point x="279" y="488"/>
			<point x="251" y="471"/>
			<point x="235" y="463" type="qcurve"/>
			<point x="223" y="457"/>
			<point x="195" y="443"/>
			<point x="187" y="436" type="qcurve"/>
		</contour>
		<contour>
			<point x="309" y="0" type="line"/>
			<point x="323" y="50"/>
			<point x="379" y="143"/>
			<point x="430" y="188" type="qcurve"/>
			<point x="323" y="188" type="line"/>
			<point x="338" y="250" type="line"/>
			<point x="536" y="250" type="line"/>
			<point x="521" y="192" type="line"/>
			<point x="475" y="151"/>
			<point x="407" y="52"/>
			<point x="396" y="0" type="qcurve"/>
		</contour>
		<contour>
			<point x="586" y="619" type="line"/>
			<point x="121" y="0" type="line"/>
			<point x="25" y="0" type="line"/>
			<point x="489" y="619" type="line"/>
		</contour>
	</outline>
</glyph>
<glyph name="fivesevenths" format="2">
	<unicode hex="F50A"/>
	<advance width="500"/>
	<outline>
		<contour>
			<point x="309" y="0" type="line"/>
			<point x="323" y="50"/>
			<point x="379" y="143"/>
			<point x="430" y="188" type="qcurve"/>
			<point x="323" y="188" type="line"/>
			<point x="338" y="250" type="line"/>
			<point x="536" y="250" type="line"/>
			<point x="521" y="192" type="line"/>
			<point x="475" y="151"/>
			<point x="407" y="52"/>
			<point x="396" y="0" type="qcurve"/>
		</contour>
		<contour>
			<point x="223" y="538" type="line"/>
			<point x="270" y="533"/>
			<point x="306" y="495"/>
			<point x="306" y="470" type="qcurve"/>
			<point x="306" y="442"/>
			<point x="284" y="403"/>
			<point x="247" y="378"/>
			<point x="200" y="367"/>
			<point x="175" y="367" type="qcurve"/>
			<point x="112" y="367"/>
			<point x="82" y="391" type="qcurve"/>
			<point x="112" y="449" type="line"/>
			<point x="125" y="441"/>
			<point x="158" y="430"/>
			<point x="178" y="430" type="qcurve"/>
			<point x="198" y="430"/>
			<point x="227" y="443"/>
			<point x="227" y="457" type="qcurve"/>
			<point x="227" y="468"/>
			<point x="197" y="485"/>
			<point x="150" y="485" type="qcurve"/>
			<point x="131" y="485" type="line"/>
			<point x="139" y="508"/>
			<point x="151" y="542"/>
			<point x="161" y="573"/>
			<point x="171" y="605"/>
			<point x="177" y="626" type="qcurve"/>
			<point x="338" y="626" type="line"/>
			<point x="322" y="565" type="line"/>
			<point x="232" y="565" type="line"/>
		</contour>
		<contour>
			<point x="584" y="619" type="line"/>
			<point x="119" y="0" type="line"/>
			<point x="23" y="0" type="line"/>
			<point x="487" y="619" type="line"/>
		</contour>
	</outline>
</glyph>
<glyph name="afii10066.locl" format="2">
	<advance width="500"/>
	<outline>
		<contour>
			<point x="302" y="375" type="line"/>
			<point x="270" y="361"/>
			<point x="227" y="318"/>
			<point x="201" y="269"/>
			<point x="189" y="218"/>
			<point x="189" y="196" type="qcurve"/>
			<point x="189" y="142"/>
			<point x="232" y="95"/>
			<point x="264" y="95" type="qcurve"/>
			<point x="289" y="95"/>
			<point x="329" y="116"/>
			<point x="358" y="152"/>
			<point x="373" y="200"/>
			<point x="373" y="228" type="qcurve"/>
			<point x="373" y="261"/>
			<point x="346" y="335"/>
			<point x="312" y="367" type="qcurve"/>
		</contour>
		<contour>
			<point x="314" y="548" type="qcurve"/>
			<point x="314" y="533"/>
			<point x="334" y="503"/>
			<point x="364" y="475"/>
			<point x="397" y="448"/>
			<point x="409" y="437" type="qcurve"/>
			<point x="456" y="394"/>
			<point x="496" y="305"/>
			<point x="496" y="246" type="qcurve"/>
			<point x="496" y="193"/>
			<point x="461" y="98"/>
			<point x="395" y="28"/>
			<point x="303" y="-13"/>
			<point x="246" y="-13" type="qcurve"/>
			<point x="209" y="-13"/>
			<point x="144" y="10"/>
			<point x="96" y="57"/>
			<point x="68" y="129"/>
			<point x="68" y="179" type="qcurve"/>
			<point x="68" y="214"/>
			<point x="86" y="287"/>
			<point x="126" y="356"/>
			<point x="190" y="417"/>
			<point x="236" y="441" type="qcurve"/>
			<point x="213" y="466"/>
			<point x="191" y="512"/>
			<point x="191" y="542" type="qcurve"/>
			<point x="191" y="570"/>
			<point x="210" y="624"/>
			<point x="253" y="664"/>
			<point x="322" y="689"/>
			<point x="373" y="689" type="qcurve"/>
			<point x="388" y="689"/>
			<point x="426" y="689"/>
			<point x="468" y="690"/>
			<point x="511" y="691"/>
			<point x="530" y="693" type="qcurve"/>
			<point x="515" y="598" type="line"/>
			<point x="495" y="595"/>
			<point x="439" y="592"/>
			<point x="387" y="592" type="qcurve"/>
			<point x="353" y="592"/>
			<point x="314" y="575"/>
		</contour>
	</outline>
</glyph>
<glyph name="ampersand.001" format="2">
	<advance width="500"/>
	<outline>
		<contour>
			<point x="480" y="290" type="curve"/>
			<point x="530" y="290" type="line"/>
			<point x="554" y="392" type="line"/>
			<point x="350" y="392" type="line" smooth="yes"/>
			<point x="293" y="392"/>
			<point x="249" y="409"/>
			<point x="249" y="452" type="curve" smooth="yes"/>
			<point x="249" y="512"/>
			<point x="288" y="530"/>
			<point x="331" y="530" type="curve" smooth="yes"/>
			<point x="364" y="530"/>
			<point x="400" y="521"/>
			<point x="426" y="510" type="curve"/>
			<point x="473" y="600" type="line"/>
			<point x="426" y="620"/>
			<point x="372" y="633"/>
			<point x="321" y="633" type="curve" smooth="yes"/>
			<point x="219" y="633"/>
			<point x="128" y="583"/>
			<point x="128" y="454" type="curve" smooth="yes"/>
			<point x="128" y="422"/>
			<point x="148" y="380"/>
			<point x="183" y="355" type="curve"/>
			<point x="90" y="325"/>
			<point x="33" y="236"/>
			<point x="33" y="153" type="curve" smooth="yes"/>
			<point x="33" y="35"/>
			<point x="114" y="-13"/>
			<point x="206" y="-13" type="curve" smooth="yes"/>
			<point x="344" y="-13"/>
			<point x="472" y="77"/>
		</contour>
		<contour>
			<point x="371" y="290" type="line"/>
			<point x="363" y="129"/>
			<point x="296" y="97"/>
			<point x="233" y="97" type="curve" smooth="yes"/>
			<point x="183" y="97"/>
			<point x="159" y="133"/>
			<point x="159" y="173" type="curve" smooth="yes"/>
			<point x="159" y="228"/>
			<point x="204" y="290"/>
			<point x="305" y="290" type="curve" smooth="yes"/>
		</contour>
	</outline>
	<guideline x="235"/>
	<guideline y="-8"/>
	<guideline y="563"/>
	<guideline y="567"/>
</glyph>
<glyph name="kratka" format="2">
	<advance width="500"/>
	<outline>
		<contour>
			<point x="349" y="534" type="qcurve"/>
			<point x="294" y="534"/>
			<point x="219" y="600"/>
			<point x="217" y="662" type="qcurve"/>
			<point x="311" y="685" type="line"/>
			<point x="312" y="650"/>
			<point x="342" y="623"/>
			<point x="364" y="623" type="qcurve"/>
			<point x="388" y="623"/>
			<point x="424" y="649"/>
			<point x="440" y="684" type="qcurve"/>
			<point x="524" y="655" type="line"/>
			<point x="503" y="592"/>
			<point x="414" y="534"/>
		</contour>
	</outline>
</glyph>
<glyph name="revcommaaccent" format="2">
	<advance width="500"/>
	<outline>
		<contour>
			<point x="403" y="535" type="line"/>
			<point x="411" y="604"/>
			<point x="434" y="633"/>
			<point x="478" y="650" type="curve"/>
			<point x="446" y="708" type="line"/>
			<point x="366" y="688"/>
			<point x="319" y="642"/>
			<point x="298" y="559" type="curve"/>
			<point x="296" y="551"/>
			<point x="295" y="543"/>
			<point x="294" y="535" type="curve"/>
		</contour>
	</outline>
</glyph>
